<svg width="24" height="24" viewBox="0 0 24 24" fill="none" xmlns="http://www.w3.org/2000/svg">
<path d="M17.6543 11.994C17.6542 11.7288 17.5489 11.4746 17.3614 11.2871C17.1739 11.0996 16.9196 10.9942 16.6544 10.9942L12.9973 10.9942L12.9973 7.33701C12.9927 7.07484 12.8854 6.82496 12.6984 6.64117C12.5114 6.45738 12.2596 6.35439 11.9974 6.35439C11.7352 6.35439 11.4835 6.45738 11.2965 6.64117C11.1095 6.82496 11.0022 7.07485 10.9976 7.33701L10.9976 10.9942L7.34044 10.9942C7.07827 10.9987 6.82838 11.1061 6.64459 11.2931C6.4608 11.4801 6.35782 11.7318 6.35782 11.994C6.35782 12.2562 6.4608 12.5079 6.64459 12.695C6.82838 12.882 7.07827 12.9893 7.34044 12.9939L10.9976 12.9939L10.9976 16.651C11.0021 16.9132 11.1095 17.1631 11.2965 17.3469C11.4835 17.5307 11.7352 17.6336 11.9974 17.6336C12.2596 17.6336 12.5114 17.5306 12.6984 17.3469C12.8854 17.1631 12.9927 16.9132 12.9973 16.651L12.9973 12.9939L16.6544 12.9939C16.9196 12.9938 17.1739 12.8885 17.3614 12.701C17.5489 12.5135 17.6542 12.2592 17.6543 11.994Z" fill="#DBFF4F"/>
<path d="M12 0C9.62663 0 7.30655 0.703788 5.33316 2.02236C3.35977 3.34094 1.8217 5.21509 0.913451 7.4078C0.00519943 9.60051 -0.232441 12.0133 0.230582 14.3411C0.693605 16.6689 1.83649 18.8071 3.51472 20.4853C5.19295 22.1635 7.33115 23.3064 9.65892 23.7694C11.9867 24.2324 14.3995 23.9948 16.5922 23.0866C18.7849 22.1783 20.6591 20.6402 21.9776 18.6668C23.2962 16.6935 24 14.3734 24 12C23.9966 8.81846 22.7312 5.76821 20.4815 3.51852C18.2318 1.26883 15.1815 0.00344108 12 0V0ZM12 22C10.0222 22 8.08879 21.4135 6.4443 20.3147C4.79981 19.2159 3.51809 17.6541 2.76121 15.8268C2.00433 13.9996 1.8063 11.9889 2.19215 10.0491C2.578 8.10929 3.53041 6.32746 4.92894 4.92893C6.32746 3.53041 8.10929 2.578 10.0491 2.19215C11.9889 1.8063 13.9996 2.00433 15.8268 2.7612C17.6541 3.51808 19.2159 4.79981 20.3147 6.4443C21.4135 8.08879 22 10.0222 22 12C21.9971 14.6513 20.9426 17.1931 19.0679 19.0679C17.1931 20.9426 14.6513 21.9971 12 22Z" fill="#DBFF4F"/>
</svg>
