<svg width="20" height="20" viewBox="0 0 20 20" fill="none" xmlns="http://www.w3.org/2000/svg">
<path d="M14.9838 7.57783C14.984 7.24155 14.9175 6.90857 14.7884 6.59807C14.6593 6.28758 14.47 6.0057 14.2314 5.76868C13.7433 5.3029 13.0945 5.04302 12.4198 5.04302C11.7451 5.04302 11.0963 5.3029 10.6082 5.76868L0.688218 15.6914C0.235456 16.1769 -0.0111455 16.8192 0.000387003 17.4829C0.0119195 18.1467 0.280685 18.7801 0.750039 19.2495C1.21939 19.719 1.85268 19.9879 2.51642 19.9996C3.18016 20.0113 3.82251 19.7648 4.3081 19.3122L14.2314 9.38948C14.4704 9.15222 14.6599 8.86995 14.789 8.55899C14.9182 8.24802 14.9844 7.91454 14.9838 7.57783ZM3.126 18.1317C2.957 18.2928 2.73247 18.3827 2.499 18.3827C2.26552 18.3827 2.041 18.2928 1.872 18.1317C1.70598 17.9653 1.61275 17.7398 1.61275 17.5047C1.61275 17.2696 1.70598 17.0441 1.872 16.8777L8.36689 10.3818L9.62507 11.64L3.126 18.1317ZM13.051 8.20651L10.8038 10.4546L9.54983 9.19636L11.7978 6.94914C11.878 6.85759 11.976 6.78348 12.086 6.73138C12.1959 6.67929 12.3154 6.65032 12.437 6.64629C12.5586 6.64225 12.6798 6.66323 12.7929 6.70792C12.9061 6.7526 13.0089 6.82006 13.0949 6.90609C13.1809 6.99212 13.2484 7.0949 13.2931 7.20807C13.3377 7.32123 13.3587 7.44237 13.3547 7.56397C13.3506 7.68557 13.3217 7.80505 13.2696 7.915C13.2175 8.02495 13.1434 8.12303 13.0518 8.20317L13.051 8.20651ZM4.00129 2.38699L5.29709 2.01747L5.6666 0.721646C5.72613 0.513716 5.85174 0.330823 6.02444 0.200623C6.19714 0.0704243 6.40754 0 6.62382 0C6.8401 0 7.0505 0.0704243 7.2232 0.200623C7.39591 0.330823 7.52152 0.513716 7.58104 0.721646L7.95056 2.01747L9.24636 2.38699C9.45428 2.44652 9.63717 2.57214 9.76737 2.74484C9.89757 2.91755 9.96799 3.12795 9.96799 3.34423C9.96799 3.56052 9.89757 3.77092 9.76737 3.94363C9.63717 4.11633 9.45428 4.24194 9.24636 4.30147L7.95056 4.67099L7.58104 5.96682C7.52152 6.17475 7.39591 6.35765 7.2232 6.48784C7.0505 6.61804 6.8401 6.68847 6.62382 6.68847C6.40754 6.68847 6.19714 6.61804 6.02444 6.48784C5.85174 6.35765 5.72613 6.17475 5.6666 5.96682L5.29709 4.67099L4.00129 4.30147C3.79336 4.24194 3.61047 4.11633 3.48028 3.94363C3.35008 3.77092 3.27966 3.56052 3.27966 3.34423C3.27966 3.12795 3.35008 2.91755 3.48028 2.74484C3.61047 2.57214 3.79336 2.44652 4.00129 2.38699ZM19.2784 14.3337L17.9826 14.7032L17.6131 15.999C17.5535 16.207 17.4279 16.3899 17.2552 16.5201C17.0825 16.6503 16.8721 16.7207 16.6558 16.7207C16.4396 16.7207 16.2292 16.6503 16.0565 16.5201C15.8838 16.3899 15.7581 16.207 15.6986 15.999L15.3291 14.7032L14.0333 14.3337C13.8254 14.2742 13.6425 14.1485 13.5123 13.9758C13.3821 13.8031 13.3117 13.5927 13.3117 13.3764C13.3117 13.1602 13.3821 12.9498 13.5123 12.7771C13.6425 12.6043 13.8254 12.4787 14.0333 12.4192L15.3291 12.0497L15.6986 10.7539C15.7581 10.5459 15.8838 10.363 16.0565 10.2328C16.2292 10.1026 16.4396 10.0322 16.6558 10.0322C16.8721 10.0322 17.0825 10.1026 17.2552 10.2328C17.4279 10.363 17.5535 10.5459 17.6131 10.7539L17.9826 12.0497L19.2784 12.4192C19.4863 12.4787 19.6692 12.6043 19.7994 12.7771C19.9296 12.9498 20 13.1602 20 13.3764C20 13.5927 19.9296 13.8031 19.7994 13.9758C19.6692 14.1485 19.4863 14.2742 19.2784 14.3337ZM14.779 2.09021L15.9126 1.76667L16.2378 0.631357C16.2908 0.450624 16.4008 0.29191 16.5515 0.178998C16.7023 0.0660864 16.8855 0.00505798 17.0738 0.00505798C17.2622 0.00505798 17.4454 0.0660864 17.5961 0.178998C17.7468 0.29191 17.8569 0.450624 17.9098 0.631357L18.2334 1.765L19.367 2.08854C19.5477 2.14146 19.7064 2.25154 19.8193 2.40226C19.9322 2.55298 19.9933 2.73623 19.9933 2.92455C19.9933 3.11288 19.9322 3.29613 19.8193 3.44685C19.7064 3.59757 19.5477 3.70764 19.367 3.76057L18.2334 4.08411L17.9098 5.22026C17.8569 5.40099 17.7468 5.5597 17.5961 5.67262C17.4454 5.78553 17.2622 5.84656 17.0738 5.84656C16.8855 5.84656 16.7023 5.78553 16.5515 5.67262C16.4008 5.5597 16.2908 5.40099 16.2378 5.22026L15.9143 4.08745L14.779 3.76224C14.5983 3.70931 14.4396 3.59924 14.3267 3.44852C14.2138 3.2978 14.1527 3.11455 14.1527 2.92623C14.1527 2.7379 14.2138 2.55465 14.3267 2.40393C14.4396 2.25321 14.5983 2.14314 14.779 2.09021Z" fill="url(#paint0_linear_742_4865)"/>
<defs>
<linearGradient id="paint0_linear_742_4865" x1="5" y1="2.5" x2="19.2857" y2="19.2857" gradientUnits="userSpaceOnUse">
<stop stop-color="white"/>
<stop offset="0.295" stop-color="#ECFFA0"/>
<stop offset="1" stop-color="#DBFF4F"/>
</linearGradient>
</defs>
</svg>
