<svg width="47" height="47" viewBox="0 0 47 47" fill="none" xmlns="http://www.w3.org/2000/svg">
<mask id="mask0_742_3983" style="mask-type:alpha" maskUnits="userSpaceOnUse" x="0" y="0" width="47" height="47">
<rect width="47" height="47" fill="#D9D9D9"/>
</mask>
<g mask="url(#mask0_742_3983)">
<path d="M28.3466 23.4999L13.9529 9.10617C13.4633 8.61659 13.2267 8.03725 13.243 7.36815C13.2593 6.69905 13.5122 6.11971 14.0018 5.63013C14.4914 5.14054 15.0708 4.89575 15.7399 4.89575C16.4089 4.89575 16.9883 5.14054 17.4779 5.63013L32.5081 20.7093C32.8997 21.101 33.1935 21.5416 33.3893 22.0312C33.5852 22.5208 33.6831 23.0103 33.6831 23.4999C33.6831 23.9895 33.5852 24.4791 33.3893 24.9687C33.1935 25.4583 32.8997 25.8989 32.5081 26.2905L17.4289 41.3697C16.9393 41.8593 16.3682 42.0959 15.7154 42.0796C15.0626 42.0633 14.4914 41.8103 14.0018 41.3208C13.5122 40.8312 13.2675 40.2518 13.2675 39.5827C13.2675 38.9136 13.5122 38.3343 14.0018 37.8447L28.3466 23.4999Z" fill="white"/>
</g>
</svg>
