<svg width="47" height="47" viewBox="0 0 47 47" fill="none" xmlns="http://www.w3.org/2000/svg">
<mask id="mask0_742_4010" style="mask-type:alpha" maskUnits="userSpaceOnUse" x="0" y="0" width="47" height="47">
<rect width="47" height="47" fill="#D9D9D9"/>
</mask>
<g mask="url(#mask0_742_4010)">
<path d="M18.7017 23.4999L33.0954 37.8937C33.585 38.3832 33.8217 38.9544 33.8053 39.6072C33.789 40.26 33.5361 40.8312 33.0465 41.3207C32.5569 41.8103 31.9857 42.0551 31.3329 42.0551C30.6802 42.0551 30.109 41.8103 29.6194 41.3207L14.5402 26.2905C14.1486 25.8989 13.8548 25.4582 13.659 24.9687C13.4632 24.4791 13.3652 23.9895 13.3652 23.4999C13.3652 23.0103 13.4632 22.5207 13.659 22.0312C13.8548 21.5416 14.1486 21.101 14.5402 20.7093L29.6194 5.63012C30.109 5.14054 30.6883 4.9039 31.3574 4.92022C32.0265 4.93654 32.6059 5.18949 33.0954 5.67908C33.585 6.16866 33.8298 6.73984 33.8298 7.39262C33.8298 8.0454 33.585 8.61658 33.0954 9.10616L18.7017 23.4999Z" fill="white"/>
</g>
</svg>
