<svg width="24" height="20" viewBox="0 0 24 20" fill="none" xmlns="http://www.w3.org/2000/svg">
<path d="M23.9316 2.58765C23.9162 2.51609 23.8839 2.44702 23.8093 2.38839C23.1296 1.85024 21.5226 -0.319742 20.4672 0.0400167C18.9948 0.542387 10.9007 11.191 9.10643 13.5379C8.47983 12.6425 3.26084 5.48361 2.99897 5.64411C2.10206 6.19219 1.17633 6.66077 0.319663 7.27942C0.22376 7.34899 0.174567 7.43892 0.160157 7.53085C0.0428871 7.62228 -0.0321455 7.77384 0.0135697 7.95918C0.748988 10.9456 3.24941 13.2974 5.03529 15.6498C6.07233 17.0158 7.51832 20.4543 9.46768 18.831C9.50097 18.8031 9.52085 18.7713 9.54271 18.739C9.92533 18.583 10.2528 18.2794 10.5956 17.9097C12.0814 16.3097 13.3892 14.5516 14.7677 12.8562C16.241 11.0435 17.8753 9.34654 19.4937 7.67297C20.9069 6.21157 22.1621 4.27662 23.8277 3.13374C24.0354 2.99014 24.0359 2.75312 23.9316 2.58765ZM4.69292 7.85732C4.22583 7.44439 3.74184 7.04289 3.23649 6.6563C3.7811 6.9937 4.26161 7.39967 4.69292 7.85732ZM2.45337 8.20018C2.35349 8.10577 2.24169 8.08639 2.13982 8.10975C2.07572 7.93086 2.02255 7.75098 1.99373 7.57259C1.97485 7.45731 1.9182 7.37234 1.84466 7.3152C1.87448 7.29283 1.9023 7.27047 1.93311 7.24861C1.93858 7.33159 1.96839 7.41458 2.0315 7.49011C3.15997 8.82529 4.43155 10.0169 5.5789 11.3342C5.71058 11.4857 5.83928 11.6388 5.96847 11.7908C4.74957 10.636 3.67476 9.34853 2.45337 8.20018ZM7.02589 17.1146C7.13968 17.2458 7.25297 17.3775 7.36925 17.5062C7.50391 17.6901 7.64006 17.8739 7.78068 18.0553C7.78118 18.0573 7.78168 18.0598 7.78218 18.0613C7.50639 17.8128 7.25297 17.462 7.02589 17.1146ZM7.39111 14.2033C7.72553 14.4984 8.07535 14.7797 8.44306 15.0053C8.43411 15.0639 8.43859 15.1211 8.453 15.1762C8.45747 15.2006 8.46741 15.2249 8.47685 15.2488C8.12554 14.891 7.75932 14.5466 7.39111 14.2033ZM9.01748 18.0399C9.01649 18.0364 9.01698 18.0329 9.01549 18.0304C9.00357 18.0031 8.98965 17.9788 8.97773 17.9519C9.3186 17.948 9.76482 17.695 10.2548 17.301C9.82197 17.7094 9.39413 17.9972 9.01748 18.0399ZM20.6277 0.994073C20.3096 1.13271 20.0448 1.34638 19.8078 1.59732C20.0423 1.2624 20.2908 1.00501 20.6277 0.994073ZM12.7592 11.2989C12.5694 11.4981 12.2295 11.7998 11.8195 12.1695C12.1818 11.8072 12.5574 11.4629 12.8948 11.119C13.9955 9.99997 14.8477 8.62752 15.7361 7.31569C16.7438 6.32685 17.7878 5.38572 18.7508 4.34619C19.3844 3.66146 19.7745 2.56379 20.5154 1.97894C20.0214 2.49969 19.6314 3.25201 19.2984 3.975C18.7702 4.53154 18.3031 5.16062 17.8132 5.76982C16.2574 7.70676 14.468 9.50555 12.7592 11.2989ZM19.2671 6.66773C18.4835 7.61731 17.604 8.48193 16.7677 9.38431C17.3988 8.59323 18.0254 7.79819 18.6008 6.96041C18.646 6.89432 18.7007 6.8014 18.7608 6.68761C18.963 6.48537 19.1653 6.28362 19.3635 6.0779C19.938 5.47963 20.6207 4.82223 21.0396 4.05699C21.374 3.60729 21.7402 3.16107 22.1541 2.89275C21.5544 4.25377 20.0999 5.65951 19.2671 6.66773Z" fill="#DBFF4F"/>
</svg>
