<svg width="25" height="24" viewBox="0 0 25 24" fill="none" xmlns="http://www.w3.org/2000/svg">
<path d="M24.5 12C24.5 18.633 19.1321 24 12.5 24C5.867 24 0.5 18.6321 0.5 12C0.5 5.367 5.86792 0 12.5 0C19.133 0 24.5 5.36792 24.5 12ZM22.625 12C22.625 6.40338 18.0959 1.875 12.5 1.875C6.90338 1.875 2.375 6.40411 2.375 12C2.375 17.5966 6.90411 22.125 12.5 22.125C18.0966 22.125 22.625 17.5959 22.625 12Z" fill="white"/>
<path d="M19.1554 9.00598C19.6149 8.54674 19.6149 7.80194 19.1554 7.34248C18.6962 6.88324 17.9514 6.88324 17.4919 7.34248L10.4326 14.402L7.50788 11.4772C7.04864 11.0178 6.30384 11.0178 5.8446 11.4772C5.38513 11.9365 5.38513 12.6813 5.8446 13.1405L9.60098 16.8971C10.0605 17.3564 10.805 17.3564 11.2645 16.8971L19.1554 9.00598Z" fill="white"/>
</svg>
