<svg width="47" height="47" viewBox="0 0 47 47" fill="none" xmlns="http://www.w3.org/2000/svg">
<mask id="mask0_742_5076" style="mask-type:alpha" maskUnits="userSpaceOnUse" x="0" y="0" width="47" height="47">
<rect width="47" height="47" fill="#D9D9D9"/>
</mask>
<g mask="url(#mask0_742_5076)">
<path d="M23.4991 26.2417L13.9033 35.8376C13.5442 36.1966 13.0873 36.3761 12.5324 36.3761C11.9776 36.3761 11.5206 36.1966 11.1616 35.8376C10.8026 35.4785 10.623 35.0216 10.623 34.4667C10.623 33.9119 10.8026 33.4549 11.1616 33.0959L20.7574 23.5001L11.1616 13.9042C10.8026 13.5452 10.623 13.0883 10.623 12.5334C10.623 11.9785 10.8026 11.5216 11.1616 11.1626C11.5206 10.8035 11.9776 10.624 12.5324 10.624C13.0873 10.624 13.5442 10.8035 13.9033 11.1626L23.4991 20.7584L33.0949 11.1626C33.454 10.8035 33.9109 10.624 34.4658 10.624C35.0206 10.624 35.4776 10.8035 35.8366 11.1626C36.1956 11.5216 36.3751 11.9785 36.3751 12.5334C36.3751 13.0883 36.1956 13.5452 35.8366 13.9042L26.2408 23.5001L35.8366 33.0959C36.1956 33.4549 36.3751 33.9119 36.3751 34.4667C36.3751 35.0216 36.1956 35.4785 35.8366 35.8376C35.4776 36.1966 35.0206 36.3761 34.4658 36.3761C33.9109 36.3761 33.454 36.1966 33.0949 35.8376L23.4991 26.2417Z" fill="white"/>
</g>
</svg>
