<svg width="6" height="6" viewBox="0 0 6 6" fill="none" xmlns="http://www.w3.org/2000/svg">
<path d="M5.23802 0.41005C5.16553 0.337584 5.06723 0.296875 4.96473 0.296875C4.86224 0.296875 4.76393 0.337584 4.69145 0.41005L2.91876 2.18274L1.14607 0.41005C1.07359 0.337584 0.975286 0.296875 0.872789 0.296875C0.770291 0.296875 0.67199 0.337584 0.599503 0.41005C0.527037 0.482537 0.486328 0.580838 0.486328 0.683335C0.486328 0.785833 0.527037 0.884134 0.599503 0.956621L2.37219 2.72931L0.599503 4.50199C0.527037 4.57448 0.486328 4.67278 0.486328 4.77528C0.486328 4.87778 0.527037 4.97608 0.599503 5.04857C0.67199 5.12103 0.770291 5.16174 0.872789 5.16174C0.975286 5.16174 1.07359 5.12103 1.14607 5.04857L2.91876 3.27588L4.69145 5.04857C4.76393 5.12103 4.86224 5.16174 4.96473 5.16174C5.06723 5.16174 5.16553 5.12103 5.23802 5.04857C5.31048 4.97608 5.35119 4.87778 5.35119 4.77528C5.35119 4.67278 5.31048 4.57448 5.23802 4.50199L3.46533 2.72931L5.23802 0.956621C5.31048 0.884134 5.35119 0.785833 5.35119 0.683335C5.35119 0.580838 5.31048 0.482537 5.23802 0.41005V0.41005Z" fill="#00272B"/>
</svg>
