<svg width="8" height="4" viewBox="0 0 8 4" fill="none" xmlns="http://www.w3.org/2000/svg">
<path d="M7.83385 0.164947C7.78074 0.112681 7.71754 0.0711962 7.64792 0.0428858C7.57829 0.0145755 7.50361 0 7.42818 0C7.35276 0 7.27808 0.0145755 7.20845 0.0428858C7.13882 0.0711962 7.07563 0.112681 7.02252 0.164947L4.40567 2.71891C4.35255 2.77118 4.28936 2.81266 4.21973 2.84097C4.15011 2.86928 4.07543 2.88386 4 2.88386C3.92457 2.88386 3.84989 2.86928 3.78027 2.84097C3.71064 2.81266 3.64745 2.77118 3.59433 2.71891L0.977485 0.164947C0.924369 0.112681 0.861176 0.0711962 0.79155 0.0428858C0.721924 0.0145755 0.647243 0 0.571817 0C0.49639 0 0.421709 0.0145755 0.352083 0.0428858C0.282457 0.0711962 0.219264 0.112681 0.166148 0.164947C0.0597312 0.269427 0 0.41076 0 0.55808C0 0.705399 0.0597312 0.846732 0.166148 0.951212L2.78871 3.51075C3.1101 3.82403 3.54576 4 4 4C4.45424 4 4.8899 3.82403 5.21129 3.51075L7.83385 0.951212C7.94027 0.846732 8 0.705399 8 0.55808C8 0.41076 7.94027 0.269427 7.83385 0.164947Z" fill="#00272B"/>
</svg>
