<svg width="68" height="68" viewBox="0 0 68 68" fill="none" xmlns="http://www.w3.org/2000/svg">
<circle cx="34" cy="34" r="34" fill="#00272B"/>
<path d="M53.1013 21.7996C51.9372 20.6354 50.3894 19.9943 48.7428 19.9943C48.442 19.9943 48.1442 20.0157 47.8503 20.0584C48.1313 18.1583 47.5112 16.2096 46.1073 14.8056C44.9429 13.6412 43.3949 13 41.7482 13C40.1015 13 38.5535 13.6412 37.3892 14.8055C36.2977 15.8968 35.6589 17.3465 35.59 18.8873C35.5328 20.1663 35.871 21.4177 36.551 22.4813L22.9149 36.1176C21.8614 35.3397 20.5897 34.9186 19.2603 34.9186C17.6138 34.9186 16.0658 35.5598 14.9016 36.724C13.7374 37.8884 13.0961 39.4364 13.0961 41.0831C13.0961 42.7298 13.7374 44.2778 14.9016 45.4421C16.0658 46.6063 17.6136 47.2474 19.2601 47.2474C19.5609 47.2474 19.8587 47.226 20.1526 47.1834C19.8715 49.0834 20.4917 51.0321 21.8957 52.4361C23.06 53.6005 24.6079 54.2416 26.2547 54.2416C27.9013 54.2416 29.4494 53.6005 30.6137 52.4361C31.7624 51.2875 32.4035 49.7604 32.4189 48.1364C32.4317 46.7849 32.0106 45.4925 31.2203 44.4228L44.7698 30.8733C45.88 31.8118 47.2719 32.3232 48.7423 32.3232C50.3889 32.3232 51.937 31.6819 53.1013 30.5177C55.5048 28.114 55.5048 24.2031 53.1013 21.7996ZM51.9465 29.3627C51.0906 30.2186 49.9527 30.6899 48.7423 30.6899C47.5319 30.6899 46.3939 30.2186 45.538 29.3627C45.4813 29.3059 45.424 29.2454 45.3679 29.1828C45.2182 29.0159 45.0064 28.9179 44.7822 28.9118C44.5572 28.9059 44.3413 28.9921 44.1826 29.1507L29.536 43.7972C29.2216 44.1115 29.2164 44.6196 29.5244 44.9403C31.2194 46.7054 31.1899 49.5501 29.4588 51.2813C28.6029 52.1371 27.4649 52.6084 26.2546 52.6084C25.0442 52.6084 23.9064 52.1371 23.0505 51.2813C21.7474 49.9782 21.3628 48.0365 22.0705 46.3348C22.1975 46.0295 22.1277 45.6776 21.8939 45.4438C21.7377 45.2875 21.5289 45.2046 21.3164 45.2046C21.2108 45.2046 21.1043 45.2251 21.003 45.2672C20.4494 45.4974 19.863 45.6142 19.2602 45.6142C18.05 45.6142 16.9123 45.1429 16.0566 44.2873C15.2006 43.4313 14.7293 42.2934 14.7293 41.083C14.7293 39.8727 15.2006 38.7347 16.0565 37.8788C16.9123 37.023 18.0501 36.5517 19.2603 36.5517C20.4361 36.5517 21.5502 36.9997 22.3974 37.8132C22.718 38.121 23.2261 38.116 23.5405 37.8016L38.1988 23.1433C38.4965 22.8456 38.519 22.3704 38.2509 22.0458C36.757 20.2376 36.883 17.6213 38.544 15.9603C39.3999 15.1044 40.5379 14.633 41.7482 14.633C42.9586 14.633 44.0965 15.1044 44.9524 15.9603C46.2555 17.2634 46.6401 19.205 45.9323 20.9068C45.8054 21.2122 45.8751 21.564 46.109 21.7979C46.3427 22.0317 46.6946 22.1014 47 21.9745C47.5536 21.7442 48.1401 21.6275 48.7429 21.6275C49.9531 21.6275 51.0908 22.0988 51.9466 22.9544C53.7132 24.7212 53.7132 27.596 51.9465 29.3627Z" fill="#DBFF4F"/>
</svg>
