<svg width="8" height="8" viewBox="0 0 8 8" fill="none" xmlns="http://www.w3.org/2000/svg">
<mask id="path-1-inside-1_1086_8350" fill="white">
<path d="M7 3.19922H6C5.82319 3.19922 5.65362 3.28351 5.5286 3.43354C5.40357 3.58357 5.33333 3.78705 5.33333 3.99923C5.33333 4.2114 5.2631 4.41489 5.13807 4.56492C5.01305 4.71495 4.84348 4.79924 4.66667 4.79924H3.33333C3.15652 4.79924 2.98695 4.71495 2.86193 4.56492C2.7369 4.41489 2.66667 4.2114 2.66667 3.99923C2.66667 3.78705 2.59643 3.58357 2.4714 3.43354C2.34638 3.28351 2.17681 3.19922 2 3.19922H1C0.734784 3.19922 0.48043 3.32565 0.292893 3.55069C0.105357 3.77574 0 4.08097 0 4.39923L0 5.99925C0.000529286 6.5295 0.176294 7.03784 0.48874 7.41278C0.801186 7.78772 1.2248 7.99864 1.66667 7.99928H6.33333C6.7752 7.99864 7.19881 7.78772 7.51126 7.41278C7.82371 7.03784 7.99947 6.5295 8 5.99925V4.39923C8 4.08097 7.89464 3.77574 7.70711 3.55069C7.51957 3.32565 7.26522 3.19922 7 3.19922ZM7.33333 5.99925C7.33333 6.31752 7.22798 6.62275 7.04044 6.84779C6.8529 7.07284 6.59855 7.19927 6.33333 7.19927H1.66667C1.40145 7.19927 1.1471 7.07284 0.95956 6.84779C0.772024 6.62275 0.666667 6.31752 0.666667 5.99925V4.39923C0.666667 4.29315 0.701786 4.1914 0.764298 4.11639C0.82681 4.04137 0.911595 3.99923 1 3.99923H2C2 4.42358 2.14048 4.83055 2.39052 5.13061C2.64057 5.43067 2.97971 5.59925 3.33333 5.59925H4.66667C5.02029 5.59925 5.35943 5.43067 5.60948 5.13061C5.85952 4.83055 6 4.42358 6 3.99923H7C7.08841 3.99923 7.17319 4.04137 7.2357 4.11639C7.29821 4.1914 7.33333 4.29315 7.33333 4.39923V5.99925Z"/>
</mask>
<path d="M7 3.19922H6C5.82319 3.19922 5.65362 3.28351 5.5286 3.43354C5.40357 3.58357 5.33333 3.78705 5.33333 3.99923C5.33333 4.2114 5.2631 4.41489 5.13807 4.56492C5.01305 4.71495 4.84348 4.79924 4.66667 4.79924H3.33333C3.15652 4.79924 2.98695 4.71495 2.86193 4.56492C2.7369 4.41489 2.66667 4.2114 2.66667 3.99923C2.66667 3.78705 2.59643 3.58357 2.4714 3.43354C2.34638 3.28351 2.17681 3.19922 2 3.19922H1C0.734784 3.19922 0.48043 3.32565 0.292893 3.55069C0.105357 3.77574 0 4.08097 0 4.39923L0 5.99925C0.000529286 6.5295 0.176294 7.03784 0.48874 7.41278C0.801186 7.78772 1.2248 7.99864 1.66667 7.99928H6.33333C6.7752 7.99864 7.19881 7.78772 7.51126 7.41278C7.82371 7.03784 7.99947 6.5295 8 5.99925V4.39923C8 4.08097 7.89464 3.77574 7.70711 3.55069C7.51957 3.32565 7.26522 3.19922 7 3.19922ZM7.33333 5.99925C7.33333 6.31752 7.22798 6.62275 7.04044 6.84779C6.8529 7.07284 6.59855 7.19927 6.33333 7.19927H1.66667C1.40145 7.19927 1.1471 7.07284 0.95956 6.84779C0.772024 6.62275 0.666667 6.31752 0.666667 5.99925V4.39923C0.666667 4.29315 0.701786 4.1914 0.764298 4.11639C0.82681 4.04137 0.911595 3.99923 1 3.99923H2C2 4.42358 2.14048 4.83055 2.39052 5.13061C2.64057 5.43067 2.97971 5.59925 3.33333 5.59925H4.66667C5.02029 5.59925 5.35943 5.43067 5.60948 5.13061C5.85952 4.83055 6 4.42358 6 3.99923H7C7.08841 3.99923 7.17319 4.04137 7.2357 4.11639C7.29821 4.1914 7.33333 4.29315 7.33333 4.39923V5.99925Z" fill="#EEEEEE"/>
<path d="M5.33333 3.99923H6.33333H5.33333ZM2.66667 3.99923H3.66667H2.66667ZM0 4.39923H-1H0ZM0 5.99925H-1L-1 6.00025L0 5.99925ZM1.66667 7.99928L1.66523 8.99928H1.66667V7.99928ZM6.33333 7.99928V8.99928L6.33477 8.99928L6.33333 7.99928ZM8 5.99925L9 6.00025V5.99925H8ZM8 4.39923H9H8ZM7.33333 5.99925H8.33333H7.33333ZM6.33333 7.19927V8.19927V7.19927ZM1.66667 7.19927V8.19927V7.19927ZM0.666667 5.99925H-0.333333H0.666667ZM2 3.99923H3V2.99923H2V3.99923ZM6 3.99923V2.99923H5V3.99923H6ZM7 2.19922H6V4.19922H7V2.19922ZM6 2.19922C5.49301 2.19922 5.05292 2.44229 4.76037 2.79336L6.29682 4.07372C6.25432 4.12472 6.15337 4.19922 6 4.19922V2.19922ZM4.76037 2.79336C4.47225 3.1391 4.33333 3.57482 4.33333 3.99923H6.33333C6.33333 4.00266 6.33289 4.00911 6.32935 4.01936C6.32588 4.02941 6.31727 4.04918 6.29682 4.07372L4.76037 2.79336ZM4.33333 3.99923C4.33333 3.9958 4.33378 3.98935 4.33731 3.9791C4.34078 3.96904 4.3494 3.94928 4.36985 3.92474L5.9063 5.2051C6.19441 4.85936 6.33333 4.42363 6.33333 3.99923H4.33333ZM4.36985 3.92474C4.41235 3.87374 4.5133 3.79924 4.66667 3.79924V5.79924C5.17366 5.79924 5.61375 5.55616 5.9063 5.2051L4.36985 3.92474ZM4.66667 3.79924H3.33333V5.79924H4.66667V3.79924ZM3.33333 3.79924C3.4867 3.79924 3.58765 3.87374 3.63015 3.92474L2.0937 5.2051C2.38625 5.55616 2.82634 5.79924 3.33333 5.79924V3.79924ZM3.63015 3.92474C3.6506 3.94928 3.65922 3.96904 3.66269 3.9791C3.66623 3.98935 3.66667 3.9958 3.66667 3.99923H1.66667C1.66667 4.42363 1.80559 4.85936 2.0937 5.2051L3.63015 3.92474ZM3.66667 3.99923C3.66667 3.57482 3.52775 3.1391 3.23963 2.79336L1.70318 4.07372C1.68273 4.04918 1.67412 4.02941 1.67065 4.01936C1.66711 4.00911 1.66667 4.00266 1.66667 3.99923H3.66667ZM3.23963 2.79336C2.94708 2.44229 2.50699 2.19922 2 2.19922V4.19922C1.84663 4.19922 1.74568 4.12472 1.70318 4.07372L3.23963 2.79336ZM2 2.19922H1V4.19922H2V2.19922ZM1 2.19922C0.404605 2.19922 -0.12027 2.48444 -0.475332 2.91051L1.06112 4.19087C1.07153 4.17838 1.07392 4.18033 1.06242 4.18604C1.05022 4.19211 1.02832 4.19922 1 4.19922V2.19922ZM-0.475332 2.91051C-0.82596 3.33127 -1 3.86874 -1 4.39923H1C1 4.2932 1.03667 4.22021 1.06112 4.19087L-0.475332 2.91051ZM-1 4.39923V5.99925H1V4.39923H-1ZM-1 6.00025C-0.999259 6.74242 -0.754781 7.4826 -0.279485 8.05296L1.25697 6.7726C1.10737 6.59308 1.00032 6.31658 1 5.99825L-1 6.00025ZM-0.279485 8.05296C0.200214 8.62861 0.893763 8.99817 1.66523 8.99928L1.6681 6.99928C1.55584 6.99912 1.40216 6.94684 1.25697 6.7726L-0.279485 8.05296ZM1.66667 8.99928H6.33333V6.99928H1.66667V8.99928ZM6.33477 8.99928C7.10624 8.99817 7.79979 8.62861 8.27949 8.05296L6.74304 6.7726C6.59784 6.94684 6.44416 6.99912 6.3319 6.99928L6.33477 8.99928ZM8.27949 8.05296C8.75478 7.4826 8.99926 6.74242 9 6.00025L7 5.99825C6.99968 6.31658 6.89263 6.59308 6.74304 6.7726L8.27949 8.05296ZM9 5.99925V4.39923H7V5.99925H9ZM9 4.39923C9 3.86874 8.82596 3.33127 8.47533 2.91051L6.93888 4.19087C6.96333 4.22021 7 4.2932 7 4.39923H9ZM8.47533 2.91051C8.12027 2.48444 7.5954 2.19922 7 2.19922V4.19922C6.97168 4.19922 6.94978 4.19211 6.93758 4.18604C6.92608 4.18033 6.92847 4.17838 6.93888 4.19087L8.47533 2.91051ZM6.33333 5.99925C6.33333 6.10529 6.29666 6.17828 6.27222 6.20761L7.80867 7.48797C8.15929 7.06721 8.33333 6.52974 8.33333 5.99925H6.33333ZM6.27222 6.20761C6.26181 6.2201 6.25941 6.21816 6.27091 6.21244C6.28311 6.20638 6.30502 6.19927 6.33333 6.19927V8.19927C6.92873 8.19927 7.4536 7.91405 7.80867 7.48797L6.27222 6.20761ZM6.33333 6.19927H1.66667V8.19927H6.33333V6.19927ZM1.66667 6.19927C1.69499 6.19927 1.71689 6.20638 1.72909 6.21244C1.74059 6.21816 1.73819 6.2201 1.72778 6.20761L0.191335 7.48797C0.546396 7.91405 1.07127 8.19927 1.66667 8.19927V6.19927ZM1.72778 6.20761C1.70334 6.17828 1.66667 6.10529 1.66667 5.99925H-0.333333C-0.333333 6.52974 -0.159294 7.06721 0.191335 7.48797L1.72778 6.20761ZM1.66667 5.99925V4.39923H-0.333333V5.99925H1.66667ZM1.66667 4.39923C1.66667 4.50537 1.6331 4.63587 1.53252 4.75657L-0.00392735 3.47621C-0.229532 3.74694 -0.333333 4.08092 -0.333333 4.39923H1.66667ZM1.53252 4.75657C1.42751 4.88258 1.24177 4.99923 1 4.99923V2.99923C0.581415 2.99923 0.226109 3.20016 -0.00392735 3.47621L1.53252 4.75657ZM1 4.99923H2V2.99923H1V4.99923ZM1 3.99923C1 4.63581 1.20916 5.27502 1.6223 5.77079L3.15875 4.49043C3.07179 4.38608 3 4.21135 3 3.99923H1ZM1.6223 5.77079C2.03987 6.27189 2.64953 6.59925 3.33333 6.59925V4.59925C3.30989 4.59925 3.24127 4.58946 3.15875 4.49043L1.6223 5.77079ZM3.33333 6.59925H4.66667V4.59925H3.33333V6.59925ZM4.66667 6.59925C5.35047 6.59925 5.96013 6.27189 6.3777 5.77079L4.84125 4.49043C4.75873 4.58946 4.69011 4.59925 4.66667 4.59925V6.59925ZM6.3777 5.77079C6.79084 5.27502 7 4.63581 7 3.99923H5C5 4.21135 4.92821 4.38608 4.84125 4.49043L6.3777 5.77079ZM6 4.99923H7V2.99923H6V4.99923ZM7 4.99923C6.75823 4.99923 6.57249 4.88258 6.46748 4.75657L8.00393 3.47621C7.77389 3.20016 7.41858 2.99923 7 2.99923V4.99923ZM6.46748 4.75657C6.3669 4.63587 6.33333 4.50537 6.33333 4.39923H8.33333C8.33333 4.08092 8.22953 3.74694 8.00393 3.47621L6.46748 4.75657ZM6.33333 4.39923V5.99925H8.33333V4.39923H6.33333Z" fill="#EEEEEE" mask="url(#path-1-inside-1_1086_8350)"/>
<mask id="path-3-inside-2_1086_8350" fill="white">
<path d="M0.999959 2.39962H6.99996C7.08837 2.39962 7.17315 2.35747 7.23566 2.28246C7.29817 2.20744 7.33329 2.1057 7.33329 1.99961C7.33329 1.89353 7.29817 1.79178 7.23566 1.71677C7.17315 1.64175 7.08837 1.59961 6.99996 1.59961H0.999959C0.911554 1.59961 0.826769 1.64175 0.764257 1.71677C0.701745 1.79178 0.666626 1.89353 0.666626 1.99961C0.666626 2.1057 0.701745 2.20744 0.764257 2.28246C0.826769 2.35747 0.911554 2.39962 0.999959 2.39962Z"/>
</mask>
<path d="M0.999959 2.39962H6.99996C7.08837 2.39962 7.17315 2.35747 7.23566 2.28246C7.29817 2.20744 7.33329 2.1057 7.33329 1.99961C7.33329 1.89353 7.29817 1.79178 7.23566 1.71677C7.17315 1.64175 7.08837 1.59961 6.99996 1.59961H0.999959C0.911554 1.59961 0.826769 1.64175 0.764257 1.71677C0.701745 1.79178 0.666626 1.89353 0.666626 1.99961C0.666626 2.1057 0.701745 2.20744 0.764257 2.28246C0.826769 2.35747 0.911554 2.39962 0.999959 2.39962Z" fill="#00272B"/>
<path d="M6.99996 1.59961V2.59961V1.59961ZM0.999959 1.59961V2.59961V1.59961ZM0.666626 1.99961H-0.333374H0.666626ZM0.999959 3.39962H6.99996V1.39962H0.999959V3.39962ZM6.99996 3.39962C7.41854 3.39962 7.77385 3.19869 8.00389 2.92264L6.46744 1.64228C6.57245 1.51626 6.75819 1.39962 6.99996 1.39962V3.39962ZM8.00389 2.92264C8.22949 2.65191 8.33329 2.31793 8.33329 1.99961H6.33329C6.33329 1.89347 6.36686 1.76298 6.46744 1.64228L8.00389 2.92264ZM8.33329 1.99961C8.33329 1.6813 8.22949 1.34732 8.00389 1.07659L6.46744 2.35695C6.36686 2.23625 6.33329 2.10575 6.33329 1.99961H8.33329ZM8.00389 1.07659C7.77385 0.80054 7.41854 0.599609 6.99996 0.599609V2.59961C6.75819 2.59961 6.57245 2.48297 6.46744 2.35695L8.00389 1.07659ZM6.99996 0.599609H0.999959V2.59961H6.99996V0.599609ZM0.999959 0.599609C0.581375 0.599609 0.226069 0.80054 -0.00396752 1.07659L1.53248 2.35695C1.42747 2.48296 1.24173 2.59961 0.999959 2.59961V0.599609ZM-0.00396752 1.07659C-0.229572 1.34732 -0.333374 1.6813 -0.333374 1.99961H1.66663C1.66663 2.10575 1.63306 2.23625 1.53248 2.35695L-0.00396752 1.07659ZM-0.333374 1.99961C-0.333374 2.31793 -0.229572 2.65191 -0.00396752 2.92264L1.53248 1.64228C1.63306 1.76298 1.66663 1.89347 1.66663 1.99961H-0.333374ZM-0.00396752 2.92264C0.226069 3.19869 0.581375 3.39962 0.999959 3.39962V1.39962C1.24173 1.39962 1.42747 1.51626 1.53248 1.64228L-0.00396752 2.92264Z" fill="#EEEEEE" mask="url(#path-3-inside-2_1086_8350)"/>
<mask id="path-5-inside-3_1086_8350" fill="white">
<path d="M0.999959 0.800008H6.99996C7.08837 0.800008 7.17315 0.757865 7.23566 0.68285C7.29817 0.607834 7.33329 0.506092 7.33329 0.400004C7.33329 0.293916 7.29817 0.192174 7.23566 0.117159C7.17315 0.0421432 7.08837 0 6.99996 0H0.999959C0.911554 0 0.826769 0.0421432 0.764257 0.117159C0.701745 0.192174 0.666626 0.293916 0.666626 0.400004C0.666626 0.506092 0.701745 0.607834 0.764257 0.68285C0.826769 0.757865 0.911554 0.800008 0.999959 0.800008Z"/>
</mask>
<path d="M0.999959 0.800008H6.99996C7.08837 0.800008 7.17315 0.757865 7.23566 0.68285C7.29817 0.607834 7.33329 0.506092 7.33329 0.400004C7.33329 0.293916 7.29817 0.192174 7.23566 0.117159C7.17315 0.0421432 7.08837 0 6.99996 0H0.999959C0.911554 0 0.826769 0.0421432 0.764257 0.117159C0.701745 0.192174 0.666626 0.293916 0.666626 0.400004C0.666626 0.506092 0.701745 0.607834 0.764257 0.68285C0.826769 0.757865 0.911554 0.800008 0.999959 0.800008Z" fill="#00272B"/>
<path d="M6.99996 0V-1V0ZM0.666626 0.400004H-0.333374H0.666626ZM0.999959 1.80001H6.99996V-0.199992H0.999959V1.80001ZM6.99996 1.80001C7.41854 1.80001 7.77385 1.59908 8.00389 1.32303L6.46744 0.0426691C6.57245 -0.0833479 6.75819 -0.199992 6.99996 -0.199992V1.80001ZM8.00389 1.32303C8.22949 1.0523 8.33329 0.718319 8.33329 0.400004H6.33329C6.33329 0.293865 6.36686 0.163368 6.46744 0.0426691L8.00389 1.32303ZM8.33329 0.400004C8.33329 0.0816893 8.22949 -0.252293 8.00389 -0.523022L6.46744 0.757339C6.36686 0.63664 6.33329 0.506144 6.33329 0.400004H8.33329ZM8.00389 -0.523022C7.77385 -0.79907 7.41854 -1 6.99996 -1V1C6.75819 1 6.57245 0.883356 6.46744 0.757339L8.00389 -0.523022ZM6.99996 -1H0.999959V1H6.99996V-1ZM0.999959 -1C0.581375 -1 0.226069 -0.799069 -0.00396746 -0.523022L1.53248 0.757339C1.42747 0.883355 1.24173 1 0.999959 1V-1ZM-0.00396746 -0.523022C-0.229572 -0.252294 -0.333374 0.0816877 -0.333374 0.400004H1.66663C1.66663 0.506145 1.63306 0.636642 1.53248 0.757339L-0.00396746 -0.523022ZM-0.333374 0.400004C-0.333374 0.718321 -0.229572 1.0523 -0.00396746 1.32303L1.53248 0.0426691C1.63306 0.163367 1.66663 0.293863 1.66663 0.400004H-0.333374ZM-0.00396746 1.32303C0.226069 1.59908 0.581375 1.80001 0.999959 1.80001V-0.199992C1.24173 -0.199992 1.42747 -0.0833472 1.53248 0.0426691L-0.00396746 1.32303Z" fill="#EEEEEE" mask="url(#path-5-inside-3_1086_8350)"/>
</svg>
