<svg width="16" height="16" viewBox="0 0 16 16" fill="none" xmlns="http://www.w3.org/2000/svg">
<path d="M8 0C3.59034 0 0 3.59063 0 8C0 12.4094 3.59063 16 8 16C12.4094 16 16 12.4094 16 8C16 3.59063 12.4094 0 8 0ZM8 14.829C4.23455 14.829 1.1713 11.7657 1.1713 8.00029C1.1713 4.23485 4.23455 1.1716 8 1.1716C11.7654 1.1716 14.8287 4.23485 14.8287 8.00029C14.8287 11.7657 11.7654 14.829 8 14.829Z" fill="#7B8283"/>
<path d="M8.58567 7.73619V4.02901C8.58567 3.70643 8.32258 3.44336 8.00002 3.44336C7.67745 3.44336 7.41437 3.70645 7.41437 4.02901V7.99944C7.41437 8.16644 7.48757 8.32772 7.61111 8.43867L9.7078 10.2917C9.81876 10.3912 9.95716 10.4381 10.0944 10.4381C10.2557 10.4381 10.417 10.3706 10.5337 10.2391C10.7476 9.99659 10.7235 9.62714 10.4833 9.41323L8.58567 7.73619Z" fill="#7B8283"/>
</svg>
