<svg width="16" height="16" viewBox="0 0 16 16" fill="none" xmlns="http://www.w3.org/2000/svg">
<path d="M16 8C16 12.422 12.4214 16 8 16C3.578 16 0 12.4214 0 8C0 3.578 3.57861 0 8 0C12.422 0 16 3.57861 16 8ZM14.75 8C14.75 4.26892 11.7306 1.25 8 1.25C4.26892 1.25 1.25 4.26941 1.25 8C1.25 11.7311 4.26941 14.75 8 14.75C11.7311 14.75 14.75 11.7306 14.75 8Z" fill="#DBFF4F"/>
<path d="M12.4369 6.00269C12.7432 5.69653 12.7432 5.19999 12.4369 4.89368C12.1308 4.58752 11.6342 4.58752 11.3279 4.89368L6.62173 9.60002L4.6719 7.65019C4.36574 7.34387 3.86921 7.34387 3.56305 7.65019C3.25673 7.95634 3.25673 8.45288 3.56305 8.75904L6.0673 11.2634C6.37362 11.5696 6.86999 11.5696 7.17631 11.2634L12.4369 6.00269Z" fill="#DBFF4F"/>
</svg>
