<svg width="14" height="16" viewBox="0 0 14 16" fill="none" xmlns="http://www.w3.org/2000/svg">
<path d="M6.68528 15.9899C5.97231 15.9899 5.25848 15.8562 4.75029 15.5887C2.36979 14.3408 0.711475 11.0685 0.167332 8.56345C-0.0466445 7.57381 -0.0825926 5.84445 0.220826 4.79211C0.853555 2.6164 2.60132 0.869494 4.77703 0.227564C5.80262 -0.0758547 7.54118 -0.0758547 8.57512 0.227564C10.7859 0.869494 12.4977 2.57211 13.1489 4.78377C13.4606 5.83611 13.4255 7.55627 13.2116 8.55511C12.6766 11.0693 11.0091 14.3417 8.62861 15.5988C8.12041 15.8663 7.40744 16 6.69362 16L6.68528 15.9899ZM5.20499 14.7236C5.92716 15.0981 7.44254 15.0981 8.16471 14.7236C10.1707 13.6713 11.7396 10.7208 12.2395 8.34862C12.4267 7.48351 12.4534 5.92384 12.1952 5.05873C11.6427 3.19564 10.1532 1.70614 8.2901 1.16286C7.44339 0.912932 5.89206 0.922133 5.0445 1.16286C3.18975 1.707 1.70111 3.20484 1.15697 5.06793C0.907043 5.93304 0.93379 7.49272 1.12103 8.35782C1.62922 10.7208 3.18975 13.6713 5.19579 14.7236H5.20499Z" fill="#7B8283"/>
<path d="M6.68527 9.84829C4.93751 9.84829 3.51991 8.4307 3.51991 6.68294C3.51991 4.93517 4.93751 3.51758 6.67607 3.51758C8.41463 3.51758 9.83223 4.93517 9.84143 6.67373C9.84143 8.4215 8.42383 9.83909 6.67607 9.83909L6.68527 9.84829ZM6.68527 8.86785C7.88889 8.86785 8.86933 7.88741 8.86933 6.68379C8.86933 5.48017 7.91564 4.49973 6.68527 4.49973C5.48165 4.49973 4.50121 5.48017 4.50121 6.68379C4.50121 7.88741 5.48165 8.86785 6.68527 8.86785Z" fill="#7B8283"/>
</svg>
