<svg width="8" height="8" viewBox="0 0 8 8" fill="none" xmlns="http://www.w3.org/2000/svg">
<path d="M6.5 6.19622C6.27267 6.07556 6.038 5.95056 6.00533 5.80889C5.99 5.74456 5.997 5.59956 6.177 5.31789C7.23333 5.16656 8 3.67489 8 2.33322C8.00931 2.06807 7.96395 1.80384 7.86674 1.55697C7.76952 1.31011 7.62254 1.0859 7.43493 0.898291C7.24732 0.710685 7.02311 0.5637 6.77625 0.466486C6.52938 0.369272 6.26515 0.32391 6 0.333222C5.67767 0.324393 5.35816 0.395472 5.06997 0.54012C4.78178 0.684768 4.53386 0.898488 4.34833 1.16222C4.09106 0.718366 3.69457 0.371766 3.2203 0.176142C2.74603 -0.0194816 2.22048 -0.0532045 1.72511 0.0802003C1.22973 0.213605 0.792186 0.506687 0.480295 0.914022C0.168405 1.32136 -0.000414688 1.8202 7.64965e-07 2.33322C7.64965e-07 3.65689 0.752334 5.16156 1.79667 5.56156C1.72441 5.68188 1.67999 5.81684 1.66667 5.95656C1.66667 6.48022 2.163 6.71222 2.52533 6.88189C2.72533 6.97522 3 7.10356 3 7.20289C2.97285 7.3064 2.92424 7.40304 2.85733 7.48656C2.8337 7.52341 2.81755 7.56457 2.80982 7.60766C2.80208 7.65076 2.80291 7.69496 2.81226 7.73774C2.82161 7.78051 2.83929 7.82103 2.8643 7.85697C2.8893 7.89292 2.92114 7.92358 2.958 7.94722C3.03244 7.99496 3.12279 8.01118 3.20918 7.9923C3.25196 7.98295 3.29248 7.96527 3.32842 7.94026C3.36436 7.91525 3.39503 7.88341 3.41867 7.84656C3.56015 7.65955 3.6461 7.43648 3.66667 7.20289C3.66667 6.67922 3.17033 6.44722 2.808 6.27789C2.608 6.18422 2.33333 6.05589 2.33033 5.98956C2.38101 5.87015 2.44449 5.7566 2.51967 5.65089C3.30367 5.54889 3.96333 4.81756 4.337 3.91756C4.54688 4.47333 4.95105 4.93423 5.47467 5.21489C5.35047 5.4425 5.30856 5.70598 5.356 5.96089C5.458 6.39756 5.86233 6.61256 6.18733 6.78556C6.39267 6.89489 6.625 7.01889 6.66033 7.14156C6.66909 7.27 6.63188 7.39737 6.55533 7.50089C6.5331 7.53881 6.51859 7.58076 6.51263 7.62431C6.50668 7.66787 6.5094 7.71217 6.52063 7.75467C6.53187 7.79717 6.5514 7.83703 6.57811 7.87195C6.60481 7.90687 6.63815 7.93616 6.67623 7.95814C6.7143 7.98012 6.75634 7.99436 6.79993 8.00002C6.84352 8.00569 6.88781 8.00268 6.93023 7.99116C6.97266 7.97964 7.01238 7.95985 7.04713 7.93291C7.08187 7.90598 7.11094 7.87244 7.13267 7.83422C7.21982 7.70787 7.2798 7.5648 7.30884 7.41408C7.33787 7.26335 7.33531 7.10824 7.30133 6.95856C7.22711 6.78337 7.11768 6.62531 6.97984 6.49417C6.84199 6.36303 6.67867 6.26162 6.5 6.19622ZM2.33333 4.99989C1.45133 4.99989 0.666667 3.50856 0.666667 2.33322C0.666667 1.89119 0.842262 1.46727 1.15482 1.15471C1.46738 0.84215 1.89131 0.666555 2.33333 0.666555C2.77536 0.666555 3.19928 0.84215 3.51185 1.15471C3.82441 1.46727 4 1.89119 4 2.33322C4 3.50856 3.21533 4.99989 2.33333 4.99989ZM4.66667 2.33322C4.65662 2.15549 4.68423 1.97765 4.74768 1.81133C4.81113 1.64501 4.909 1.49396 5.03487 1.36809C5.16074 1.24222 5.31179 1.14435 5.47811 1.0809C5.64442 1.01745 5.82227 0.989841 6 0.999889C6.17773 0.989841 6.35558 1.01745 6.5219 1.0809C6.68822 1.14435 6.83926 1.24222 6.96513 1.36809C7.09101 1.49396 7.18887 1.64501 7.25233 1.81133C7.31578 1.97765 7.34338 2.15549 7.33333 2.33322C7.33333 3.46656 6.648 4.66656 6 4.66656C5.352 4.66656 4.66667 3.46656 4.66667 2.33322Z" fill="#EEEEEE"/>
</svg>
