<svg width="24" height="18" viewBox="0 0 24 18" fill="none" xmlns="http://www.w3.org/2000/svg">
<path d="M7 3H23C23.2652 3 23.5196 2.89464 23.7071 2.7071C23.8946 2.51957 24 2.26521 24 2C24 1.73478 23.8946 1.48043 23.7071 1.29289C23.5196 1.10536 23.2652 1 23 1H7C6.73478 1 6.48043 1.10536 6.29289 1.29289C6.10536 1.48043 6 1.73478 6 2C6 2.26521 6.10536 2.51957 6.29289 2.7071C6.48043 2.89464 6.73478 3 7 3Z" fill="#DBFF4F"/>
<path d="M23 8H7C6.73478 8 6.48043 8.10536 6.29289 8.2929C6.10536 8.48043 6 8.73479 6 9.00001C6 9.26522 6.10536 9.51958 6.29289 9.70712C6.48043 9.89465 6.73478 10 7 10H23C23.2652 10 23.5196 9.89465 23.7071 9.70712C23.8946 9.51958 24 9.26522 24 9.00001C24 8.73479 23.8946 8.48043 23.7071 8.2929C23.5196 8.10536 23.2652 8 23 8Z" fill="#DBFF4F"/>
<path d="M23 15H7C6.73478 15 6.48043 15.1054 6.29289 15.2929C6.10536 15.4804 6 15.7348 6 16C6 16.2652 6.10536 16.5196 6.29289 16.7071C6.48043 16.8947 6.73478 17 7 17H23C23.2652 17 23.5196 16.8947 23.7071 16.7071C23.8946 16.5196 24 16.2652 24 16C24 15.7348 23.8946 15.4804 23.7071 15.2929C23.5196 15.1054 23.2652 15 23 15Z" fill="#DBFF4F"/>
<path d="M2 3.99999C3.10457 3.99999 4 3.10456 4 2C4 0.895429 3.10457 0 2 0C0.89543 0 0 0.895429 0 2C0 3.10456 0.89543 3.99999 2 3.99999Z" fill="#DBFF4F"/>
<path d="M2 11C3.10457 11 4 10.1046 4 9C4 7.89543 3.10457 7 2 7C0.89543 7 0 7.89543 0 9C0 10.1046 0.89543 11 2 11Z" fill="#DBFF4F"/>
<path d="M2 18C3.10457 18 4 17.1046 4 16C4 14.8954 3.10457 14 2 14C0.89543 14 0 14.8954 0 16C0 17.1046 0.89543 18 2 18Z" fill="#DBFF4F"/>
</svg>
