<svg width="24" height="17" viewBox="0 0 24 17" fill="none" xmlns="http://www.w3.org/2000/svg">
<path d="M1 2H23C23.2652 2 23.5196 1.89464 23.7071 1.7071C23.8946 1.51957 24 1.26521 24 0.999998C24 0.734782 23.8946 0.480429 23.7071 0.292893C23.5196 0.105357 23.2652 0 23 0H1C0.734784 0 0.48043 0.105357 0.292893 0.292893C0.105357 0.480429 0 0.734782 0 0.999998C0 1.26521 0.105357 1.51957 0.292893 1.7071C0.48043 1.89464 0.734784 2 1 2Z" fill="#DBFF4F"/>
<path d="M23.0001 5H9.00012C8.73491 5 8.48055 5.10536 8.29302 5.29289C8.10548 5.48043 8.00012 5.73478 8.00012 6C8.00012 6.26521 8.10548 6.51957 8.29302 6.7071C8.48055 6.89464 8.73491 7 9.00012 7H23.0001C23.2653 7 23.5197 6.89464 23.7072 6.7071C23.8948 6.51957 24.0001 6.26521 24.0001 6C24.0001 5.73478 23.8948 5.48043 23.7072 5.29289C23.5197 5.10536 23.2653 5 23.0001 5Z" fill="#DBFF4F"/>
<path d="M23.0001 15H9.00012C8.73491 15 8.48055 15.1054 8.29302 15.2929C8.10548 15.4804 8.00012 15.7348 8.00012 16C8.00012 16.2652 8.10548 16.5196 8.29302 16.7071C8.48055 16.8947 8.73491 17 9.00012 17H23.0001C23.2653 17 23.5197 16.8947 23.7072 16.7071C23.8948 16.5196 24.0001 16.2652 24.0001 16C24.0001 15.7348 23.8948 15.4804 23.7072 15.2929C23.5197 15.1054 23.2653 15 23.0001 15Z" fill="#DBFF4F"/>
<path d="M23 10H1C0.734784 10 0.48043 10.1054 0.292893 10.2929C0.105357 10.4804 0 10.7348 0 11C0 11.2652 0.105357 11.5196 0.292893 11.7071C0.48043 11.8947 0.734784 12 1 12H23C23.2652 12 23.5196 11.8947 23.7071 11.7071C23.8946 11.5196 24 11.2652 24 11C24 10.7348 23.8946 10.4804 23.7071 10.2929C23.5196 10.1054 23.2652 10 23 10Z" fill="#DBFF4F"/>
</svg>
