<svg width="25" height="25" viewBox="0 0 25 25" fill="none" xmlns="http://www.w3.org/2000/svg">
<path d="M24.7523 12.2476C24.6077 9.90758 23.7815 7.66108 22.3755 5.78499C20.9696 3.9089 19.0454 2.48526 16.8401 1.68956C14.6348 0.893861 12.2449 0.760897 9.96491 1.30706C7.68497 1.85322 5.61469 3.05463 4.0093 4.76318C2.40391 6.47173 1.33359 8.61273 0.930291 10.9222C0.526993 13.2317 0.808346 15.6088 1.73967 17.7603C2.67099 19.9118 4.21156 21.7438 6.17146 23.0303C8.13136 24.3169 10.4249 25.0018 12.7694 25.0006H19.7523C21.078 24.9992 22.349 24.472 23.2864 23.5346C24.2238 22.5972 24.751 21.3262 24.7523 20.0006V12.2476ZM22.7523 20.0006C22.7523 20.7962 22.4363 21.5593 21.8737 22.1219C21.3111 22.6845 20.548 23.0006 19.7523 23.0006H12.7694C11.3583 22.9999 9.96319 22.7019 8.67505 22.1259C7.3869 21.5499 6.23462 20.7088 5.29335 19.6576C4.34752 18.6068 3.63728 17.366 3.21024 16.0184C2.78321 14.6707 2.64925 13.2473 2.81735 11.8436C3.08279 9.62951 4.07754 7.56675 5.64479 5.98049C7.21204 4.39422 9.26265 3.37467 11.4733 3.08256C11.9046 3.02851 12.3387 3.00113 12.7733 3.00056C15.1038 2.99421 17.3622 3.80847 19.1523 5.30056C20.1979 6.16951 21.0561 7.24172 21.6749 8.45219C22.2937 9.66267 22.6603 10.9862 22.7523 12.3426V20.0006Z" fill="#00272B"/>
<path d="M8.75232 10H12.7523C13.0175 10 13.2719 9.89464 13.4594 9.7071C13.647 9.51957 13.7523 9.26521 13.7523 9C13.7523 8.73478 13.647 8.48043 13.4594 8.29289C13.2719 8.10536 13.0175 8 12.7523 8H8.75232C8.4871 8 8.23275 8.10536 8.04521 8.29289C7.85768 8.48043 7.75232 8.73478 7.75232 9C7.75232 9.26521 7.85768 9.51957 8.04521 9.7071C8.23275 9.89464 8.4871 10 8.75232 10Z" fill="#00272B"/>
<path d="M16.7523 12.001H8.75232C8.4871 12.001 8.23275 12.1063 8.04521 12.2939C7.85768 12.4814 7.75232 12.7358 7.75232 13.001C7.75232 13.2662 7.85768 13.5206 8.04521 13.7081C8.23275 13.8956 8.4871 14.001 8.75232 14.001H16.7523C17.0175 14.001 17.2719 13.8956 17.4594 13.7081C17.647 13.5206 17.7523 13.2662 17.7523 13.001C17.7523 12.7358 17.647 12.4814 17.4594 12.2939C17.2719 12.1063 17.0175 12.001 16.7523 12.001Z" fill="#00272B"/>
<path d="M16.7523 16H8.75232C8.4871 16 8.23275 16.1054 8.04521 16.2929C7.85768 16.4804 7.75232 16.7348 7.75232 17C7.75232 17.2652 7.85768 17.5196 8.04521 17.7071C8.23275 17.8947 8.4871 18 8.75232 18H16.7523C17.0175 18 17.2719 17.8947 17.4594 17.7071C17.647 17.5196 17.7523 17.2652 17.7523 17C17.7523 16.7348 17.647 16.4804 17.4594 16.2929C17.2719 16.1054 17.0175 16 16.7523 16Z" fill="#00272B"/>
</svg>
