<svg width="21" height="24" viewBox="0 0 21 24" fill="none" xmlns="http://www.w3.org/2000/svg">
<path d="M10.6666 14.6C14.7 14.6 17.9666 11.3333 17.9666 7.3C17.9666 3.26667 14.7 0 10.6666 0C6.6333 0 3.36664 3.26667 3.36664 7.3C3.36664 11.3333 6.6333 14.6 10.6666 14.6ZM10.6666 2.5C13.3333 2.5 15.5 4.66667 15.5 7.33333C15.5 10 13.3333 12.1667 10.6666 12.1667C7.99997 12.1667 5.8333 10 5.8333 7.33333C5.8333 4.66667 7.99997 2.5 10.6666 2.5Z" fill="white"/>
<path d="M15.9 15.666H5.43333C2.73333 15.666 0.5 17.866 0.5 20.5993V22.766C0.5 23.4327 1.06667 23.9993 1.73333 23.9993C2.4 23.9993 2.96667 23.4327 2.96667 22.766V20.5993C2.96667 19.2327 4.06667 18.1327 5.43333 18.1327H15.9C17.2667 18.1327 18.3667 19.2327 18.3667 20.5993V22.766C18.3667 23.4327 18.9333 23.9993 19.6 23.9993C20.2667 23.9993 20.8333 23.4327 20.8333 22.766V20.5993C20.8333 17.866 18.6333 15.666 15.9 15.666Z" fill="white"/>
</svg>
