<svg width="7" height="7" viewBox="0 0 7 7" fill="none" xmlns="http://www.w3.org/2000/svg">
<path d="M6.7936 3.73002C6.79358 3.62752 6.75286 3.52923 6.68038 3.45675C6.60791 3.38427 6.50961 3.34355 6.40711 3.34353L3.90016 3.34353L3.90016 0.836577C3.90014 0.734079 3.85942 0.635784 3.78694 0.563308C3.71446 0.490831 3.61617 0.450108 3.51367 0.450092C3.41117 0.450108 3.31288 0.490831 3.2404 0.563308C3.16793 0.635784 3.1272 0.734079 3.12719 0.836577L3.12719 3.34353L0.62023 3.34353C0.517733 3.34355 0.419438 3.38427 0.346962 3.45675C0.274485 3.52923 0.233761 3.62752 0.233746 3.73002C0.233761 3.83252 0.274485 3.93081 0.346962 4.00329C0.419438 4.07576 0.517733 4.11649 0.62023 4.1165L3.12719 4.1165V6.62346C3.1272 6.72596 3.16793 6.82425 3.2404 6.89673C3.31288 6.9692 3.41117 7.00993 3.51367 7.00994C3.61617 7.00993 3.71446 6.9692 3.78694 6.89673C3.85942 6.82425 3.90014 6.72596 3.90016 6.62346V4.1165L6.40711 4.1165C6.50961 4.11649 6.60791 4.07576 6.68038 4.00329C6.75286 3.93081 6.79358 3.83252 6.7936 3.73002V3.73002Z" fill="#ffffff"/>
</svg>
