<svg width="234" height="134" viewBox="0 0 234 134" fill="none" xmlns="http://www.w3.org/2000/svg">
<path d="M16.1323 111.258C17.9273 112.534 18.8266 114.347 18.8266 116.698C18.8266 117.776 18.5743 118.789 18.0662 119.736C17.558 120.683 16.8671 121.516 15.9825 122.236C15.1015 122.956 14.0706 123.519 12.8934 123.929C11.7163 124.338 10.4588 124.543 9.11717 124.543C8.10456 124.543 7.11388 124.411 6.15245 124.152C5.18736 123.892 4.29904 123.53 3.48017 123.073C2.66496 122.616 1.95211 122.068 1.34893 121.432C0.742095 120.796 0.296107 120.083 0 119.301C0.753062 118.942 1.58655 118.54 2.50046 118.098C3.41437 117.656 4.21496 117.257 4.90222 116.895C5.19467 117.385 5.65528 117.835 6.27308 118.244C6.89454 118.654 7.74265 118.858 8.82106 118.858C9.89948 118.858 10.7476 118.599 11.2703 118.072C11.7931 117.55 12.0563 117.06 12.0563 116.603C12.0563 116.277 11.8772 115.974 11.5189 115.696C11.157 115.418 10.7512 115.199 10.2943 115.035C9.63993 114.775 9.10255 114.636 8.67484 114.618C8.25078 114.603 7.76093 114.512 7.20527 114.347C5.4396 113.923 4.09432 113.36 3.16213 112.655C2.22994 111.953 1.55365 111.24 1.12959 110.523C0.705539 109.803 0.467922 109.12 0.420399 108.465C0.372876 107.811 0.347286 107.288 0.347286 106.897C0.347286 105.852 0.573936 104.854 1.03455 103.907C1.4915 102.96 2.12027 102.134 2.92086 101.432C3.72144 100.73 4.65363 100.167 5.71377 99.7393C6.77391 99.3153 7.91081 99.1033 9.12083 99.1033C10.1334 99.1033 11.0985 99.2495 12.0124 99.5456C12.9263 99.8381 13.7598 100.247 14.5129 100.77C15.266 101.293 15.9094 101.914 16.4504 102.635C16.9878 103.355 17.3899 104.155 17.6531 105.036L12.4072 106.802C12.2098 106.213 11.8114 105.742 11.2045 105.38C10.5977 105.022 9.95431 104.839 9.26705 104.839C8.57979 104.839 8.02413 105.069 7.60008 105.526C7.17603 105.983 6.964 106.44 6.964 106.897C6.964 107.453 7.16871 107.884 7.57815 108.195C7.98758 108.506 8.43722 108.725 8.92708 108.857C9.28533 108.922 9.63627 108.981 9.9799 109.028C10.3235 109.076 10.6562 109.134 10.9852 109.2C12.1294 109.463 13.1164 109.756 13.9499 110.081C14.7834 110.407 15.5109 110.801 16.1323 111.258Z" fill="#DBFF4F"/>
<path d="M47.8486 99.6882V124.002H42.0142L41.327 121.403C40.3802 122.679 39.2433 123.527 37.9199 123.951C36.5966 124.375 35.2147 124.587 33.7781 124.587C32.0453 124.587 30.4514 124.25 29.0001 123.582C27.5452 122.913 26.2803 121.995 25.2019 120.836C24.1235 119.677 23.2827 118.321 22.6759 116.767C22.069 115.217 21.7693 113.558 21.7693 111.792C21.7693 110.026 22.069 108.37 22.6759 106.817C23.2791 105.263 24.1235 103.907 25.2019 102.748C26.2803 101.589 27.5452 100.672 29.0001 100.003C30.4551 99.3336 32.049 98.9973 33.7781 98.9973C35.3463 98.9973 36.783 99.2422 38.0917 99.7321C39.3968 100.222 40.4789 101.008 41.327 102.086L42.0142 99.6846H47.8486V99.6882ZM41.082 111.894C41.082 110.619 40.9102 109.551 40.5666 108.685C40.223 107.818 39.766 107.116 39.1957 106.575C38.6255 106.034 37.9528 105.643 37.1851 105.398C36.4174 105.153 35.5913 105.029 34.7103 105.029C33.8293 105.029 33.0031 105.208 32.2354 105.57C31.4677 105.928 30.7878 106.411 30.2029 107.018C29.6143 107.625 29.1573 108.341 28.832 109.175C28.5066 110.008 28.3421 110.882 28.3421 111.796C28.3421 112.71 28.5066 113.627 28.832 114.442C29.1573 115.261 29.6143 115.97 30.2029 116.574C30.7914 117.18 31.4677 117.659 32.2354 118.021C33.0031 118.38 33.8293 118.562 34.7103 118.562C36.4759 118.562 37.9711 118.014 39.1957 116.921C40.4204 115.828 41.0491 114.15 41.082 111.898V111.894Z" fill="#DBFF4F"/>
<path d="M79.269 99.6882C80.15 99.6882 81.1005 99.8345 82.1131 100.131C83.1257 100.423 84.0652 100.949 84.9316 101.699C85.798 102.452 86.5072 103.479 87.0628 104.788C87.6185 106.097 87.8963 107.764 87.8963 109.789V124.006H81.1297V111.05C81.1297 110.074 81.0237 109.24 80.8117 108.557C80.5996 107.873 80.3145 107.318 79.9526 106.893C79.5943 106.469 79.1776 106.17 78.7024 105.991C78.2271 105.811 77.7482 105.72 77.2547 105.72C76.7978 105.72 76.3408 105.8 75.8839 105.965C75.4269 106.129 75.0175 106.404 74.6592 106.795C74.2973 107.186 74.0122 107.723 73.8001 108.407C73.5881 109.091 73.4821 109.953 73.4821 110.999V124.002H66.7192V111.046C66.7192 109.058 66.3755 107.672 65.6883 106.89C65.001 106.108 64.0067 105.716 62.698 105.716C61.7511 105.716 60.8994 106.155 60.15 107.036C59.3969 107.917 59.024 109.284 59.024 111.141V123.998H52.2574V99.6846H58.0407L59.0204 101.958C59.7734 101.235 60.6471 100.675 61.6415 100.28C62.6395 99.8856 63.7069 99.6882 64.8511 99.6882C65.4397 99.6882 66.0612 99.7467 66.7155 99.86C67.3699 99.977 68.006 100.182 68.6274 100.478C69.2489 100.774 69.8447 101.161 70.415 101.64C70.9853 102.119 71.5007 102.719 71.9577 103.443C72.3489 102.817 72.8241 102.265 73.3797 101.787C73.9354 101.308 74.5386 100.913 75.1929 100.598C75.8473 100.288 76.5236 100.054 77.2255 99.9076C77.9274 99.7577 78.6073 99.6846 79.2617 99.6846L79.269 99.6882Z" fill="#DBFF4F"/>
<path d="M104.222 99.001C106.054 99.001 107.717 99.3702 109.223 100.105C110.726 100.84 112.016 101.805 113.095 102.997C114.173 104.188 115.007 105.563 115.595 107.113C116.184 108.666 116.476 110.26 116.476 111.891C116.476 112.87 116.345 113.916 116.085 115.027H98.7316C99.386 116.139 100.318 117.078 101.525 117.846C102.735 118.613 104.04 118.997 105.447 118.997C106.854 118.997 108.086 118.884 109.147 118.654C110.207 118.427 111.212 118.131 112.162 117.773L114.418 121.94C113.208 122.792 111.826 123.443 110.276 123.9C108.723 124.356 107.067 124.587 105.301 124.587C103.371 124.587 101.576 124.25 99.9088 123.581C98.2418 122.913 96.7868 122.006 95.5476 120.862C94.3046 119.717 93.3249 118.361 92.6048 116.793C91.8846 115.225 91.5264 113.558 91.5264 111.792C91.5264 110.026 91.8517 108.418 92.5061 106.864C93.1604 105.314 94.067 103.954 95.2259 102.796C96.3847 101.637 97.7337 100.712 99.269 100.025C100.804 99.3373 102.457 98.9937 104.219 98.9937L104.222 99.001ZM109.761 109.785C109.37 108.381 108.664 107.237 107.651 106.352C106.639 105.471 105.495 105.029 104.219 105.029C102.943 105.029 101.726 105.471 100.665 106.352C99.6017 107.233 98.8779 108.378 98.4831 109.785H109.757H109.761Z" fill="#DBFF4F"/>
<path d="M135.445 99.001C137.178 99.001 138.779 99.3373 140.249 100.006C141.718 100.675 142.987 101.593 144.047 102.752C145.107 103.911 145.941 105.267 146.547 106.82C147.151 108.374 147.454 110.03 147.454 111.796C147.454 113.561 147.151 115.221 146.547 116.771C145.944 118.325 145.111 119.681 144.047 120.84C142.983 121.999 141.718 122.916 140.249 123.585C138.779 124.254 137.178 124.59 135.445 124.59C134.038 124.59 132.667 124.338 131.325 123.83C129.984 123.326 128.938 122.679 128.189 121.893V133.708H121.422V99.6882H127.205L128.185 101.355C129.132 100.507 130.196 99.9003 131.373 99.542C132.55 99.1838 133.906 99.001 135.441 99.001H135.445ZM134.564 118.559C135.445 118.559 136.271 118.38 137.039 118.018C137.807 117.659 138.476 117.177 139.05 116.57C139.62 115.967 140.081 115.254 140.424 114.439C140.768 113.624 140.94 112.739 140.94 111.792C140.94 110.845 140.768 110.004 140.424 109.171C140.081 108.337 139.624 107.621 139.05 107.014C138.479 106.411 137.807 105.928 137.039 105.567C136.271 105.208 135.445 105.025 134.564 105.025C133.683 105.025 132.857 105.15 132.089 105.395C131.322 105.64 130.653 106.031 130.079 106.572C129.508 107.113 129.059 107.815 128.73 108.681C128.404 109.548 128.24 110.586 128.24 111.792C128.24 112.936 128.404 113.923 128.73 114.757C129.055 115.59 129.505 116.292 130.079 116.866C130.649 117.436 131.322 117.864 132.089 118.142C132.857 118.42 133.683 118.559 134.564 118.559Z" fill="white"/>
<path d="M175.789 99.6882V124.002H169.954L169.267 121.403C168.32 122.679 167.183 123.527 165.86 123.951C164.537 124.375 163.155 124.587 161.718 124.587C159.985 124.587 158.392 124.25 156.94 123.582C155.485 122.913 154.221 121.995 153.142 120.836C152.064 119.677 151.223 118.321 150.616 116.767C150.009 115.217 149.709 113.558 149.709 111.792C149.709 110.026 150.009 108.37 150.616 106.817C151.219 105.263 152.064 103.907 153.142 102.748C154.221 101.589 155.485 100.672 156.94 100.003C158.395 99.3336 159.989 98.9973 161.718 98.9973C163.287 98.9973 164.723 99.2422 166.032 99.7321C167.337 100.222 168.419 101.008 169.267 102.086L169.954 99.6846H175.789V99.6882ZM169.022 111.894C169.022 110.619 168.85 109.551 168.507 108.685C168.163 107.818 167.706 107.116 167.136 106.575C166.566 106.034 165.893 105.643 165.125 105.398C164.358 105.153 163.531 105.029 162.65 105.029C161.769 105.029 160.943 105.208 160.176 105.57C159.408 105.928 158.728 106.411 158.143 107.018C157.554 107.625 157.098 108.341 156.772 109.175C156.447 110.008 156.282 110.882 156.282 111.796C156.282 112.71 156.447 113.627 156.772 114.442C157.098 115.261 157.554 115.97 158.143 116.574C158.732 117.18 159.408 117.659 160.176 118.021C160.943 118.38 161.769 118.562 162.65 118.562C164.416 118.562 165.911 118.014 167.136 116.921C168.361 115.828 168.989 114.15 169.022 111.898V111.894Z" fill="white"/>
<path d="M199.221 99.6882H205.005V115.766C205.005 117.63 204.979 119.286 204.932 120.741C204.884 122.196 204.76 123.505 204.562 124.664C204.365 125.822 204.047 126.861 203.608 127.775C203.166 128.688 202.555 129.54 201.769 130.323C200.333 131.726 198.721 132.691 196.94 133.214C195.16 133.737 193.288 134 191.329 134C189.662 134 188.094 133.803 186.624 133.412C185.155 133.02 183.831 132.479 182.654 131.792V125.468C182.947 125.925 183.363 126.334 183.904 126.692C184.442 127.051 185.063 127.361 185.765 127.625C186.467 127.884 187.22 128.089 188.021 128.239C188.821 128.385 189.629 128.458 190.448 128.458C191.526 128.458 192.539 128.319 193.486 128.041C194.433 127.764 195.259 127.314 195.961 126.692C196.663 126.071 197.218 125.296 197.628 124.364C198.037 123.432 198.242 122.298 198.242 120.957V120.467C197.295 121.319 196.198 121.995 194.959 122.503C193.716 123.011 192.36 123.263 190.89 123.263C189.256 123.263 187.746 122.945 186.357 122.309C184.968 121.673 183.765 120.807 182.753 119.71C181.74 118.617 180.947 117.327 180.377 115.839C179.803 114.351 179.518 112.775 179.518 111.108C179.518 109.441 179.803 107.873 180.377 106.404C180.947 104.934 181.74 103.651 182.753 102.554C183.765 101.461 184.964 100.595 186.357 99.9551C187.746 99.319 189.256 99.001 190.89 99.001C192.426 99.001 193.815 99.2057 195.058 99.6151C196.301 100.025 197.361 100.668 198.245 101.553L199.225 99.6882H199.221ZM192.261 117.239C193.307 117.239 194.206 117.053 194.959 116.676C195.712 116.299 196.33 115.817 196.823 115.228C197.313 114.64 197.671 113.985 197.902 113.269C198.128 112.549 198.245 111.847 198.245 111.16C198.245 110.407 198.125 109.664 197.876 108.93C197.631 108.195 197.262 107.541 196.772 106.97C196.282 106.4 195.661 105.932 194.908 105.574C194.155 105.216 193.274 105.033 192.261 105.033C191.409 105.033 190.627 105.197 189.907 105.523C189.187 105.848 188.558 106.29 188.021 106.846C187.48 107.402 187.056 108.049 186.745 108.783C186.434 109.518 186.281 110.312 186.281 111.16C186.281 112.008 186.434 112.801 186.745 113.536C187.056 114.271 187.48 114.918 188.021 115.473C188.558 116.029 189.19 116.464 189.907 116.771C190.623 117.082 191.409 117.235 192.261 117.235V117.239Z" fill="#DBFF4F"/>
<path d="M221.232 99.001C223.064 99.001 224.727 99.3702 226.233 100.105C227.736 100.84 229.026 101.805 230.104 102.997C231.183 104.188 232.016 105.563 232.605 107.113C233.193 108.666 233.486 110.26 233.486 111.891C233.486 112.87 233.354 113.916 233.095 115.027H215.741C216.396 116.139 217.328 117.078 218.534 117.846C219.744 118.613 221.049 118.997 222.457 118.997C223.864 118.997 225.096 118.884 226.156 118.654C227.216 118.427 228.222 118.131 229.172 117.773L231.428 121.94C230.218 122.792 228.836 123.443 227.286 123.9C225.732 124.356 224.076 124.587 222.311 124.587C220.38 124.587 218.585 124.25 216.919 123.581C215.252 122.913 213.797 122.006 212.557 120.862C211.314 119.717 210.335 118.361 209.615 116.793C208.894 115.225 208.536 113.558 208.536 111.792C208.536 110.026 208.861 108.418 209.516 106.864C210.17 105.314 211.077 103.954 212.236 102.796C213.394 101.637 214.743 100.712 216.279 100.025C217.814 99.3373 219.466 98.9937 221.229 98.9937L221.232 99.001ZM226.77 109.785C226.379 108.381 225.674 107.237 224.661 106.352C223.649 105.471 222.504 105.029 221.229 105.029C219.953 105.029 218.735 105.471 217.675 106.352C216.611 107.233 215.888 108.378 215.493 109.785H226.767H226.77Z" fill="#DBFF4F"/>
<path d="M107.615 34.4423C101.711 35.221 97.5436 40.6606 98.3222 46.5644C99.1009 52.4683 104.54 56.6357 110.444 55.8571C116.348 55.0784 120.516 49.6388 119.737 43.735C118.958 37.8311 113.519 33.6637 107.615 34.4423ZM109.644 49.8106C107.07 50.1506 104.705 48.3374 104.365 45.7638C104.025 43.1903 105.838 40.8251 108.412 40.4851C110.985 40.1451 113.351 41.9583 113.691 44.5319C114.03 47.1055 112.217 49.4707 109.644 49.8106Z" fill="white"/>
<path d="M129.691 40.5619C125.187 41.1578 122.007 45.3032 122.603 49.807C123.199 54.3108 127.344 57.4912 131.848 56.8953C136.352 56.2994 139.532 52.1539 138.936 47.6502C138.34 43.1464 134.195 39.966 129.691 40.5619ZM131.051 50.8489C129.878 51.0024 128.803 50.1799 128.649 49.0064C128.496 47.833 129.318 46.7582 130.492 46.6047C131.665 46.4511 132.74 47.2736 132.894 48.4471C133.047 49.6206 132.225 50.6953 131.051 50.8489Z" fill="white"/>
<path d="M141.788 6.05258L135.526 6.87876L134.988 2.79906C134.769 1.12843 133.237 -0.0450285 131.567 0.17431C129.896 0.393649 128.722 1.92536 128.942 3.59599L129.479 7.67569L116.337 9.41212L115.8 5.33242C115.58 3.66179 114.049 2.48833 112.378 2.70767C110.707 2.92701 109.534 4.45872 109.753 6.12935L110.291 10.209L97.1487 11.9455L96.6113 7.86578C96.392 6.19515 94.8603 5.02169 93.1896 5.24103C91.519 5.46037 90.3456 6.99208 90.5649 8.66271L91.1023 12.7424L84.8402 13.5686C79.0094 14.3399 74.8895 19.7101 75.6608 25.5445L81.6963 71.251C82.4676 77.0817 87.8378 81.2016 93.6722 80.4303L150.612 72.9106C156.443 72.1393 160.563 66.7691 159.792 60.9347L153.756 15.2282C152.985 9.3975 147.615 5.27759 141.78 6.04893L141.788 6.05258ZM104.387 72.8668C104.27 68.6847 107.341 64.9962 111.578 64.4368C115.814 63.8775 119.737 66.6412 120.713 70.7099L104.387 72.8668ZM128.624 69.6644C128.726 67.3138 130.506 65.2959 132.919 64.9779C135.332 64.6598 137.573 66.144 138.282 68.3886L128.624 69.6644ZM153.753 61.7353C154.082 64.2394 152.323 66.5352 149.819 66.8678L144.365 67.588C143.181 62.0058 137.869 58.1747 132.119 58.9351C128.715 59.3847 125.875 61.3478 124.186 64.0603C121.17 60.0245 116.118 57.6885 110.777 58.3941C103.206 59.3957 97.7775 66.1477 98.3222 73.671L92.8789 74.3912C90.3748 74.7202 88.0791 72.9618 87.7464 70.4577L81.7109 24.7512C81.3819 22.2471 83.1403 19.9513 85.6444 19.6187L91.9065 18.7925L92.3488 22.1338C92.5682 23.8044 94.0999 24.9778 95.7705 24.7585C97.4412 24.5392 98.6146 23.0075 98.3953 21.3368L97.9529 17.9956L111.095 16.2591L111.537 19.6004C111.757 21.271 113.288 22.4445 114.959 22.2251C116.63 22.0058 117.803 20.4741 117.584 18.8035L117.141 15.4622L130.283 13.7258L130.726 17.067C130.945 18.7377 132.477 19.9111 134.147 19.6918C135.818 19.4724 136.992 17.9407 136.772 16.2701L136.33 12.9288L142.592 12.1027C145.096 11.7737 147.392 13.532 147.725 16.0361L153.76 61.7426L153.753 61.7353Z" fill="#DBFF4F"/>
</svg>
