<svg width="14" height="14" viewBox="0 0 14 14" fill="none" xmlns="http://www.w3.org/2000/svg">
<path d="M10.4887 5.30448C10.4888 5.06908 10.4423 4.836 10.3519 4.61865C10.2615 4.4013 10.129 4.20399 9.962 4.03808C9.62031 3.71203 9.16616 3.53011 8.69387 3.53011C8.22158 3.53011 7.76743 3.71203 7.42574 4.03808L0.481753 10.984C0.164819 11.3238 -0.00780183 11.7734 0.000270902 12.2381C0.00834363 12.7027 0.196479 13.146 0.525027 13.4747C0.853576 13.8033 1.29687 13.9915 1.76149 13.9997C2.22611 14.0079 2.67576 13.8354 3.01567 13.5185L9.962 6.57263C10.1292 6.40655 10.2619 6.20896 10.3523 5.99129C10.4427 5.77362 10.4891 5.54018 10.4887 5.30448ZM2.1882 12.6922C2.0699 12.805 1.91273 12.8679 1.7493 12.8679C1.58586 12.8679 1.4287 12.805 1.3104 12.6922C1.19418 12.5757 1.12892 12.4178 1.12892 12.2533C1.12892 12.0887 1.19418 11.9309 1.3104 11.8144L5.85682 7.26728L6.73755 8.14803L2.1882 12.6922ZM9.1357 5.74456L7.56268 7.31819L6.68488 6.43745L8.25848 4.8644C8.31458 4.80032 8.38323 4.74843 8.4602 4.71197C8.53716 4.6755 8.6208 4.65523 8.70592 4.6524C8.79103 4.64957 8.87583 4.66426 8.95504 4.69554C9.03425 4.72682 9.1062 4.77404 9.16642 4.83426C9.22664 4.89448 9.27386 4.96643 9.30514 5.04565C9.33642 5.12486 9.3511 5.20966 9.34828 5.29478C9.34545 5.3799 9.32518 5.46353 9.28871 5.5405C9.25225 5.61746 9.20037 5.68612 9.13628 5.74222L9.1357 5.74456ZM2.8009 1.6709L3.70796 1.41223L3.96662 0.505152C4.00829 0.359601 4.09622 0.231576 4.21711 0.140436C4.338 0.049297 4.48528 0 4.63668 0C4.78807 0 4.93535 0.049297 5.05624 0.140436C5.17713 0.231576 5.26506 0.359601 5.30673 0.505152L5.56539 1.41223L6.47245 1.6709C6.618 1.71257 6.74602 1.8005 6.83716 1.92139C6.9283 2.04228 6.97759 2.18956 6.97759 2.34096C6.97759 2.49236 6.9283 2.63964 6.83716 2.76054C6.74602 2.88143 6.618 2.96936 6.47245 3.01103L5.56539 3.2697L5.30673 4.17677C5.26506 4.32233 5.17713 4.45035 5.05624 4.54149C4.93535 4.63263 4.78807 4.68193 4.63668 4.68193C4.48528 4.68193 4.338 4.63263 4.21711 4.54149C4.09622 4.45035 4.00829 4.32233 3.96662 4.17677L3.70796 3.2697L2.8009 3.01103C2.65535 2.96936 2.52733 2.88143 2.43619 2.76054C2.34506 2.63964 2.29576 2.49236 2.29576 2.34096C2.29576 2.18956 2.34506 2.04228 2.43619 1.92139C2.52733 1.8005 2.65535 1.71257 2.8009 1.6709ZM13.4949 10.0336L12.5878 10.2922L12.3291 11.1993C12.2875 11.3449 12.1995 11.4729 12.0786 11.564C11.9578 11.6552 11.8105 11.7045 11.6591 11.7045C11.5077 11.7045 11.3604 11.6552 11.2395 11.564C11.1186 11.4729 11.0307 11.3449 10.989 11.1993L10.7304 10.2922L9.82331 10.0336C9.67776 9.99191 9.54974 9.90398 9.4586 9.78309C9.36746 9.66219 9.31817 9.51491 9.31817 9.36351C9.31817 9.21211 9.36746 9.06483 9.4586 8.94394C9.54974 8.82304 9.67776 8.73511 9.82331 8.69344L10.7304 8.43478L10.989 7.5277C11.0307 7.38215 11.1186 7.25412 11.2395 7.16298C11.3604 7.07185 11.5077 7.02255 11.6591 7.02255C11.8105 7.02255 11.9578 7.07185 12.0786 7.16298C12.1995 7.25412 12.2875 7.38215 12.3291 7.5277L12.5878 8.43478L13.4949 8.69344C13.6404 8.73511 13.7684 8.82304 13.8596 8.94394C13.9507 9.06483 14 9.21211 14 9.36351C14 9.51491 13.9507 9.66219 13.8596 9.78309C13.7684 9.90398 13.6404 9.99191 13.4949 10.0336ZM10.3453 1.46315L11.1388 1.23667L11.3665 0.44195C11.4035 0.315437 11.4806 0.204337 11.5861 0.125299C11.6916 0.0462605 11.8199 0.00354059 11.9517 0.00354059C12.0835 0.00354059 12.2118 0.0462605 12.3173 0.125299C12.4228 0.204337 12.4998 0.315437 12.5369 0.44195L12.7634 1.2355L13.5569 1.46197C13.6834 1.49902 13.7945 1.57607 13.8735 1.68158C13.9526 1.78708 13.9953 1.91536 13.9953 2.04719C13.9953 2.17901 13.9526 2.30729 13.8735 2.41279C13.7945 2.5183 13.6834 2.59535 13.5569 2.6324L12.7634 2.85888L12.5369 3.65418C12.4998 3.78069 12.4228 3.89179 12.3173 3.97083C12.2118 4.04987 12.0835 4.09259 11.9517 4.09259C11.8199 4.09259 11.6916 4.04987 11.5861 3.97083C11.4806 3.89179 11.4035 3.78069 11.3665 3.65418L11.14 2.86122L10.3453 2.63357C10.2188 2.59652 10.1077 2.51947 10.0287 2.41396C9.94963 2.30846 9.90691 2.18018 9.90691 2.04836C9.90691 1.91653 9.94963 1.78825 10.0287 1.68275C10.1077 1.57725 10.2188 1.5002 10.3453 1.46315Z" fill="#00272B"/>
</svg>
