<svg width="22" height="24" viewBox="0 0 22 24" fill="none" xmlns="http://www.w3.org/2000/svg">
<path d="M4.16623 6.4055C4.02499 6.27078 3.94459 6.08609 3.94242 5.89267C3.93916 5.69819 4.01413 5.51132 4.14994 5.37333C4.28683 5.23426 4.47263 5.15712 4.66711 5.15712C4.8605 5.15712 5.04629 5.23535 5.18319 5.37333L6.10778 6.2827L7.18231 4.25424V4.25533C7.26488 4.07497 7.41916 3.93591 7.6082 3.87289C7.79724 3.80879 8.00368 3.82617 8.1786 3.91961C8.35461 4.01196 8.485 4.17384 8.53715 4.36616C8.59039 4.55738 8.56214 4.76273 8.46001 4.93331L6.93025 7.83095C6.8216 8.03195 6.62494 8.16995 6.40006 8.20472C6.36312 8.20689 6.32618 8.20689 6.28924 8.20472C6.09911 8.20472 5.91768 8.12975 5.78295 7.99611L4.16623 6.4055ZM9.4097 8.20472H16.4652C16.8651 8.20472 17.1888 7.87986 17.1888 7.48003C17.1888 7.08021 16.8651 6.75535 16.4652 6.75535H9.4097C9.00987 6.75535 8.68609 7.08021 8.68609 7.48003C8.68609 7.87986 9.00987 8.20472 9.4097 8.20472ZM5.78305 13.9588C5.91778 14.0914 6.1003 14.1664 6.28935 14.1675C6.32629 14.1696 6.36323 14.1696 6.40017 14.1675C6.62616 14.1316 6.82172 13.9925 6.93036 13.7904L8.46012 10.9081C8.63178 10.5572 8.49488 10.1334 8.14938 9.94982C7.80496 9.7662 7.37691 9.88898 7.1824 10.2269L6.10787 12.2553L5.18329 11.334C5.04639 11.1949 4.86059 11.1167 4.6672 11.1167C4.47272 11.1167 4.28693 11.1949 4.15003 11.3329C4.01422 11.4709 3.93925 11.6578 3.94251 11.8523C3.94469 12.0467 4.02509 12.2314 4.16633 12.3651L5.78305 13.9588ZM9.40441 14.1675H16.4655C16.8653 14.1675 17.1891 13.8426 17.1891 13.4428C17.1891 13.0429 16.8653 12.7181 16.4655 12.7181H9.40998C9.01015 12.7181 8.68637 13.0429 8.68637 13.4428C8.68637 13.8426 9.01015 14.1675 9.40998 14.1675H9.40441ZM5.78305 19.9182C5.91778 20.0508 6.1003 20.1258 6.28935 20.1268C6.32629 20.1301 6.36323 20.1301 6.40017 20.1268C6.62616 20.0921 6.8228 19.953 6.93036 19.7498L8.46012 16.8522V16.8533C8.5579 16.6827 8.58289 16.4806 8.52856 16.2916C8.47533 16.1025 8.34604 15.9439 8.1733 15.8516C7.99946 15.7592 7.79628 15.7407 7.60943 15.8016C7.42257 15.8624 7.26826 15.9961 7.18243 16.1721L6.1079 18.2005L5.18331 17.2911V17.2901C5.04641 17.1521 4.86062 17.0739 4.66723 17.0739C4.47275 17.0739 4.28695 17.151 4.15005 17.2901C4.01425 17.428 3.93928 17.6149 3.94254 17.8094C3.94471 18.0028 4.02511 18.1875 4.16635 18.3222L5.78305 19.9182ZM9.40441 20.1268H16.4655C16.8653 20.1268 17.1891 19.8031 17.1891 19.4022C17.1891 19.0023 16.8653 18.6786 16.4655 18.6786H9.40998C9.01015 18.6786 8.68637 19.0023 8.68637 19.4022C8.68637 19.8031 9.01015 20.1268 9.40998 20.1268H9.40441ZM0 20.0888V3.91118C0.00108641 1.75344 1.74816 0.00417207 3.9059 0H17.2326C19.3925 0.00108641 21.143 1.75141 21.1438 3.91118V20.0888C21.1427 22.2487 19.3924 23.9992 17.2326 24H3.9059C1.74816 23.9957 0.00111255 22.2464 0 20.0888ZM1.44827 20.0888C1.45044 21.4491 2.55214 22.5508 3.91132 22.5519H17.2328C18.593 22.5508 19.6947 21.4491 19.6958 20.0888V3.91118C19.6947 2.55092 18.593 1.44921 17.2328 1.44813H3.90604C2.54577 1.44921 1.44407 2.55089 1.44298 3.91118L1.44827 20.0888Z" fill="white"/>
</svg>
