<?xml version="1.0" encoding="utf-8"?>
<!-- Generator: Adobe Illustrator 22.1.0, SVG Export Plug-In . SVG Version: 6.00 Build 0)  -->
<svg version="1.1" id="Layer_1" xmlns="http://www.w3.org/2000/svg" xmlns:xlink="http://www.w3.org/1999/xlink" x="0px" y="0px"
	 viewBox="0 0 269 56" style="enable-background:new 0 0 269 56;" xml:space="preserve">
<style type="text/css">
	.st0{fill:#EF305E;}
	.st1{display:none;}
	.st2{display:inline;fill:#FFFFFF;}
	.st3{display:inline;fill:url(#SVGID_1_);}
	.st4{fill:#F4F4F4;}
</style>
<path class="st0" d="M61.1,2.8l15.2,47.4c0.8,2.6-1.1,5.2-3.8,5.2H61.3c-1.7,0-3.3-1.1-3.8-2.8l-15-47.4C41.7,2.6,43.6,0,46.3,0h11
	C59,0,60.6,1.1,61.1,2.8z"/>
<g class="st1">
	<path class="st2" d="M46.5,37.8L35.8,3.4C35.2,1.4,33.3,0,31.1,0c-2.6,0-4.8,2.1-4.9,4.7l-1.3,25.7c0,0.9,0.1,1.8,0.3,2.7l5.8,19.5
		c0.5,1.7,2.1,2.9,3.8,2.9h5.4c1.7,0,3.3-1.1,3.8-2.8l2.4-7.5C47.3,42.7,47.3,40.2,46.5,37.8z"/>
	
		<linearGradient id="SVGID_1_" gradientUnits="userSpaceOnUse" x1="28.4837" y1="29.4106" x2="39.9837" y2="26.4106" gradientTransform="matrix(1 0 0 -1 0 55.8898)">
		<stop  offset="0" style="stop-color:#000000;stop-opacity:0.25"/>
		<stop  offset="0.9115" style="stop-color:#FFFFFF;stop-opacity:0"/>
	</linearGradient>
	<path class="st3" d="M46.5,37.8L35.8,3.4C35.2,1.4,33.3,0,31.1,0c-2.6,0-4.8,2.1-4.9,4.7l-1.3,25.7c0,0.9,0.1,1.8,0.3,2.7l5.8,19.5
		c0.5,1.7,2.1,2.9,3.8,2.9h5.4c1.7,0,3.3-1.1,3.8-2.8l2.4-7.5C47.3,42.7,47.3,40.2,46.5,37.8z"/>
</g>
<path class="st4" d="M46.5,53.6L36,55.4c-1.4,0.2-2.8-1.2-3.3-3.3l-7.8-36.4c-0.1-0.4-0.1-0.8-0.1-1.2l-0.1-9.6
	c0-1.9,0.8-3.3,2.1-3.6L38-0.5c1.3-0.2,2.6,0.9,3.1,2.7l3,9.1c0.1,0.4,0.2,0.8,0.3,1.2l4.3,37C48.8,51.6,47.9,53.4,46.5,53.6z"/>
<path class="st0" d="M20.3,0h11C34,0,36,2.6,35.2,5.2L20.3,52.9c-0.5,1.7-2.1,2.8-3.8,2.8h-11c-2.7,0-4.6-2.6-3.8-5.2L16.5,2.8
	C17,1.1,18.6,0,20.3,0z"/>
<g>
	<path class="st4" d="M75.7,1.7c1.3-0.5,2.4-0.8,3.3-0.8c0.9,0,1.8,0.1,2.5,0.3c0.7,0.2,1.4,0.5,2.2,0.9c0.7,0.4,1.4,0.9,2.1,1.5
		c1.3,1.2,2.3,2.5,3.2,4l6.7,12.6l9.7-16.8h0.3l3.5,19.7c0.5,3,1.5,5.5,2.8,7.3c1.3,1.8,3.1,2.7,5.4,2.7c0.2,0,0.3,0,0.4,0v0.3
		c-1.2,0.3-2.4,0.5-3.6,0.5c-2.4,0-4.6-1-6.6-2.9c-1.9-1.8-3.2-4.5-3.9-8l-1.6-9.8l-6.3,10.9c-0.9,1.4-1.3,2.7-1.3,3.7h-0.3
		l-8.4-15.8l-1.6,13.4c-0.1,0.5,0.2,0.9,0.7,1.2c0.2,0.1,0.4,0.2,0.6,0.2H86v0.3h-7v-0.3h0.5c0.6,0,1.1-0.2,1.6-0.5
		c0.5-0.3,0.7-0.8,0.9-1.4l2.3-16c-1-1.8-2.2-3.4-3.5-4.8c-1.5-1.6-3-2.3-4.6-2.3c-0.2,0-0.3,0-0.4,0L75.7,1.7z"/>
	<path class="st4" d="M113.3,27.1c0.6,0,1.1-0.2,1.5-0.6c0.4-0.4,0.6-0.9,0.7-1.5V6.3c-0.1-0.8-0.4-1.4-1.1-1.7
		c-0.3-0.2-0.7-0.3-1-0.3h-0.4V3.9h12.9c0.7,0,1.5-0.1,2.3-0.2c0.8-0.1,1.4-0.3,1.7-0.4v5.9h-0.3V8.8c0-1-0.3-1.8-0.9-2.4
		c-0.6-0.6-1.4-0.9-2.4-1h-5.6v9.8h4.4c0.8,0,1.5-0.3,2-0.9s0.8-1.2,0.8-2V12h0.3v7.8h-0.3v-0.3c0-1.1-0.4-1.9-1.3-2.5
		c-0.4-0.2-0.9-0.4-1.5-0.4h-4.5V26h4.4c1.6,0,3-0.5,4.1-1.4c1.1-0.9,1.9-2.3,2.5-4h0.3l-1.5,6.8h-17.4v-0.3H113.3z"/>
	<path class="st4" d="M164.4,27.1h0.5v0.3h-10.1v-0.3h0.5c0.4,0,0.7-0.2,1-0.5c0.3-0.3,0.4-0.6,0.3-1l-1.3-12.2l-6.3,10.9
		c-0.8,1.4-1.3,2.6-1.3,3.7h-0.3l-8.6-14.5l-1.3,12.1c0,0.4,0.1,0.7,0.3,1c0.3,0.3,0.6,0.5,1,0.5h0.5v0.3h-7v-0.3h0.5
		c0.6,0,1.2-0.2,1.6-0.6c0.5-0.4,0.7-0.9,0.8-1.5l2.8-21.5h0.3l10.4,17.1l10-17.1h0.3L162,25c0.1,0.6,0.4,1.2,0.9,1.5
		S163.8,27.1,164.4,27.1z"/>
	<path class="st4" d="M179.1,3.5c4.1,0,7.4,1.1,9.9,3.3c2.4,2.2,3.7,5.2,3.7,8.9s-1.2,6.7-3.7,8.9c-2.4,2.2-5.7,3.3-9.9,3.3
		c-4.1,0-7.4-1.1-9.9-3.3c-2.4-2.2-3.7-5.2-3.7-8.9c0-2.5,0.6-4.6,1.7-6.5c1.1-1.8,2.7-3.3,4.7-4.2C174,4,176.4,3.5,179.1,3.5z
		 M173.2,23.6c1.4,1.9,3.4,2.9,5.9,2.9c2.5,0,4.4-1,5.9-2.9c1.4-1.9,2.2-4.6,2.2-7.9c0-2.2-0.3-4.1-1-5.7c-0.6-1.6-1.6-2.9-2.8-3.8
		c-1.2-0.9-2.6-1.3-4.3-1.3c-2.5,0-4.4,1-5.9,2.9c-1.4,1.9-2.2,4.6-2.2,7.9C171.1,19,171.8,21.7,173.2,23.6z"/>
	<path class="st4" d="M203.9,5.4h-1.4c0,0-0.1,0-0.1,0V25c0,0.8,0.4,1.4,1.1,1.8c0.3,0.2,0.7,0.3,1.1,0.3h0.4v0.3h-10.2v-0.3h0.4
		c0.8,0,1.4-0.3,1.8-1c0.2-0.3,0.3-0.7,0.3-1V6.4c0-0.6-0.2-1.1-0.7-1.5c-0.4-0.4-0.9-0.6-1.5-0.6h-0.4V3.9h11.5
		c2.2,0,4,0.5,5.5,1.4c0.8,0.5,1.4,1.1,1.8,2c0.4,0.8,0.7,1.8,0.7,2.9c0,1.1-0.2,2-0.6,2.9c-0.4,0.9-1,1.7-1.8,2.3
		c-0.9,0.7-1.9,1.1-3.1,1.2c1.3,0.4,2.4,1.4,3.4,3c2.4,3.9,4.2,6.2,5.4,6.9c0.6,0.4,1.3,0.5,2.2,0.6v0.3h-3.3
		c-1.9,0-3.5-0.3-4.8-0.8c-1.3-0.5-2.3-1.4-3.1-2.7c-0.4-0.6-0.9-1.6-1.5-2.9c-0.6-1.3-1-2.2-1.2-2.8c-0.6-1.3-1.4-2.1-2.3-2.2v-0.3
		h1c1,0,1.9-0.3,2.7-0.9s1.3-1.6,1.6-3c0.1-0.5,0.1-0.8,0.1-1.1c0-1.8-0.4-3.2-1.1-4c-0.7-0.8-1.7-1.2-2.9-1.3
		C204.6,5.4,204.3,5.4,203.9,5.4z"/>
	<path class="st4" d="M219.7,27.1c0.6,0,1.1-0.2,1.5-0.6c0.4-0.4,0.6-0.9,0.7-1.5V6.4c0-0.6-0.2-1.1-0.7-1.5
		c-0.4-0.4-0.9-0.6-1.5-0.6h-0.4V3.9h10.2l0,0.3H229c-0.6,0-1.1,0.2-1.5,0.6c-0.4,0.4-0.6,0.9-0.6,1.5V25c0,0.6,0.2,1.1,0.6,1.5
		c0.4,0.4,0.9,0.6,1.5,0.6h0.4l0,0.3h-10.2v-0.3H219.7z"/>
	<path class="st4" d="M254.9,27.1h0.3v0.3h-10.7v-0.3h0.3c0.5,0,0.9-0.2,1.1-0.5c0.2-0.3,0.4-0.6,0.4-0.9c0-0.3-0.1-0.5-0.2-0.8
		l-1.6-4.1h-7.9l-1.7,4.1c-0.1,0.3-0.2,0.6-0.2,0.8c0,0.3,0.1,0.5,0.4,0.8c0.2,0.3,0.6,0.5,1.1,0.5h0.3v0.3h-7.2v-0.3h0.3
		c0.5,0,1-0.2,1.5-0.5c0.5-0.3,0.9-0.8,1.3-1.4l7.8-17.6c1.1-2.2,1.6-3.7,1.7-4.4h0.3l10,21.9c0.3,0.6,0.8,1.1,1.3,1.5
		C253.9,26.9,254.4,27.1,254.9,27.1z M237.2,19.5h6.7l-3.3-8.3L237.2,19.5z"/>
</g>
<g>
	<path class="st4" d="M79.9,44.4c-0.6,0.9-0.9,1.9-0.9,2.9c0,1.1,0.4,2,1.2,2.9c0.4,0.5,1,0.9,1.6,1.2c0.7,0.3,1.4,0.4,2.1,0.4
		s1.5-0.1,2.1-0.4c1.2-0.6,1.8-1.6,1.8-2.9c0-0.5-0.2-1.1-0.5-1.6c-0.3-0.6-0.9-1.1-1.6-1.5l-3.7-2.5c-1.5-0.9-2.2-2.1-2.2-3.5
		c0-0.1,0-0.3,0-0.4c0.1-1.1,0.5-2,1.4-2.8c0.8-0.7,1.9-1.1,3.3-1.1c0.8,0,1.8,0.1,3,0.2H89l-0.3,3.2h-0.2c0-0.8-0.3-1.4-0.9-1.8
		s-1.3-0.7-2.3-0.7c-1.1,0-2,0.3-2.5,1c-0.2,0.4-0.4,0.7-0.4,1.1s0.1,0.8,0.4,1c0.2,0.3,0.6,0.6,1.2,0.9l4.1,2.7
		c0.8,0.5,1.5,1.2,2,1.9c0.6,0.9,0.8,1.8,0.8,2.7c0,0.6-0.1,1.2-0.4,1.9c-0.2,0.7-0.6,1.3-1.2,1.8c-0.6,0.6-1.3,1-2.1,1.4
		c-0.9,0.4-1.8,0.5-2.9,0.5c-1,0-2-0.2-2.8-0.5c-1.6-0.7-2.6-1.8-3-3.5c-0.1-0.4-0.1-0.7-0.1-1.1c0-1.2,0.4-2.4,1.3-3.5L79.9,44.4z"
		/>
	<path class="st4" d="M101.2,35c2.7,0,4.9,0.7,6.5,2.2c1.6,1.4,2.4,3.4,2.4,5.9c0,2.5-0.8,4.4-2.4,5.9c-1.6,1.4-3.8,2.2-6.5,2.2
		s-4.9-0.7-6.5-2.2c-1.6-1.4-2.4-3.4-2.4-5.9c0-1.6,0.4-3,1.1-4.3c0.7-1.2,1.8-2.1,3.1-2.8C97.9,35.3,99.4,35,101.2,35z M97.4,48.2
		c0.9,1.3,2.2,1.9,3.8,1.9c1.6,0,2.9-0.6,3.8-1.9s1.4-3,1.4-5.2c0-1.4-0.2-2.7-0.6-3.8s-1-1.9-1.8-2.5c-0.8-0.6-1.7-0.9-2.8-0.9
		c-1.6,0-2.9,0.6-3.8,1.9c-0.9,1.3-1.4,3-1.4,5.2C96,45.2,96.4,46.9,97.4,48.2z"/>
	<path class="st4" d="M116.4,36.2v6.4h2.9c0.5,0,1-0.2,1.3-0.5c0.4-0.4,0.5-0.8,0.5-1.3v-0.2h0.2v5.1h-0.2v-0.2c0-0.5-0.2-1-0.5-1.3
		c-0.3-0.4-0.8-0.5-1.3-0.5h-2.9v5.5c0,0.5,0.2,0.9,0.7,1.2c0.2,0.1,0.5,0.2,0.7,0.2h0.3l0,0.2h-6.7v-0.2h0.3c0.4,0,0.7-0.1,1-0.4
		s0.4-0.6,0.4-1V36.8c0-0.4-0.2-0.7-0.5-0.9s-0.6-0.4-1-0.4h-0.3v-0.2h8.4c0.7,0,1.3-0.1,1.8-0.2c0.5-0.1,0.8-0.2,0.9-0.2v3.7h-0.2
		v-0.2c0-0.6-0.2-1.2-0.6-1.6s-0.9-0.6-1.5-0.6H116.4z"/>
	<path class="st4" d="M132.5,36.2v12.9c0,0.4,0.2,0.7,0.4,1c0.3,0.3,0.6,0.4,1,0.4h0.3l0,0.2h-6.7v-0.2h0.3c0.4,0,0.7-0.1,1-0.4
		c0.3-0.3,0.4-0.6,0.5-0.9V36.2h-3c-0.7,0-1.2,0.2-1.6,0.6c-0.4,0.4-0.6,0.9-0.6,1.6v0.3h-0.2v-3.8c0.2,0.1,0.6,0.2,1.1,0.3
		c0.5,0.1,1,0.1,1.5,0.1h8.9c0.7,0,1.3-0.1,1.8-0.2c0.5-0.1,0.7-0.2,0.8-0.2v3.8h-0.2v-0.3c0-0.7-0.2-1.2-0.6-1.6s-0.9-0.6-1.6-0.6
		H132.5z"/>
</g>
</svg>
