<?xml version="1.0" encoding="utf-8"?>
<!-- Generator: Adobe Illustrator 22.1.0, SVG Export Plug-In . SVG Version: 6.00 Build 0)  -->
<svg version="1.1" id="Layer_1" xmlns="http://www.w3.org/2000/svg" xmlns:xlink="http://www.w3.org/1999/xlink" x="0px" y="0px"
	 viewBox="0 0 175 34" style="enable-background:new 0 0 175 34;" xml:space="preserve">
<style type="text/css">
	.st0{fill:#0094FF;}
	.st1{fill:#FFFFFF;}
	.st2{fill:#F7F7F7;}
	.st3{font-family:'Cinzel-Bold';}
	.st4{font-size:18px;}
</style>
<path class="st0" d="M30.8,1.7C31,1.5,31.1,1.2,31.1,1c0-0.3-0.1-0.5-0.3-0.7C30.6,0.1,30.4,0,30.1,0h0L13.7,0h0
	c-0.2,0-0.5,0-0.7,0.1c-0.2,0.1-0.4,0.2-0.6,0.4c-1.1,1.1-3.9,3.9-8.9,8.7C-3.1,15.7,1.6,22,1.6,22l6.1,6.2
	c-1.4-1.6,0.3-3.6,0.3-3.6L30.8,1.7C30.8,1.7,30.8,1.7,30.8,1.7L30.8,1.7L30.8,1.7z"/>
<path class="st1" d="M31.6,32.3L31.6,32.3L18.2,18.8c-0.1-0.1-0.2-0.2-0.3-0.2c-0.1-0.1-0.3-0.1-0.4-0.1c-0.1,0-0.3,0-0.4,0.1
	c-0.1,0.1-0.2,0.1-0.3,0.2l-7.1,7.1C7.9,28.1,9,29.2,9,29.2l4.2,4.4c0.1,0.1,0.2,0.2,0.4,0.3C13.7,34,13.9,34,14,34h16.8
	c0,0,0,0,0,0c0.2,0,0.4-0.1,0.5-0.2c0.2-0.1,0.3-0.3,0.4-0.4c0.1-0.2,0.1-0.4,0.1-0.6C31.8,32.6,31.7,32.5,31.6,32.3z"/>
<text transform="matrix(1 0 0 1 38.5469 21.0831)" class="st2 st3 st4">MemoriaSoft</text>
</svg>
