<?xml version="1.0" encoding="utf-8"?>
<!-- Generator: Adobe Illustrator 22.1.0, SVG Export Plug-In . SVG Version: 6.00 Build 0)  -->
<svg version="1.1" id="Layer_1" xmlns="http://www.w3.org/2000/svg" xmlns:xlink="http://www.w3.org/1999/xlink" x="0px" y="0px"
	 viewBox="0 0 164 26" style="enable-background:new 0 0 164 26;" xml:space="preserve">
<style type="text/css">
	.st0{fill:#00A3FF;}
	.st1{fill:#3F4254;}
	.st2{font-family:'Cinzel-Bold';}
	.st3{font-size:18px;}
</style>
<path class="st0" d="M23.2,1.3c0.1-0.1,0.2-0.3,0.2-0.5c0-0.2-0.1-0.4-0.2-0.5C23.1,0.1,22.9,0,22.7,0h0L10.3,0h0
	C10.1,0,10,0,9.8,0.1C9.6,0.2,9.5,0.3,9.4,0.4c-0.8,0.8-2.9,3-6.7,6.6c-5,4.9-1.5,9.7-1.5,9.7l4.6,4.7c-1.1-1.2,0.2-2.8,0.2-2.8
	L23.2,1.3C23.2,1.3,23.2,1.3,23.2,1.3L23.2,1.3L23.2,1.3z"/>
<path class="st1" d="M23.8,24.7L23.8,24.7L13.7,14.4c-0.1-0.1-0.2-0.1-0.2-0.2c-0.1,0-0.2-0.1-0.3-0.1c-0.1,0-0.2,0-0.3,0.1
	c-0.1,0-0.2,0.1-0.2,0.2l0,0l-5.3,5.4c-1.4,1.7-0.5,2.5-0.5,2.5l3.1,3.3c0.1,0.1,0.2,0.2,0.3,0.2c0.1,0.1,0.2,0.1,0.4,0.1h12.7
	c0,0,0,0,0,0c0.1,0,0.3,0,0.4-0.1c0.1-0.1,0.2-0.2,0.3-0.3c0.1-0.1,0.1-0.3,0.1-0.4C24,25,23.9,24.8,23.8,24.7L23.8,24.7z"/>
<text transform="matrix(1 0 0 1 27.5469 20.0831)" class="st2 st3">MemoriaSoft</text>
</svg>
