<?xml version="1.0" encoding="utf-8"?>
<!-- Generator: Adobe Illustrator 22.1.0, SVG Export Plug-In . SVG Version: 6.00 Build 0)  -->
<svg version="1.1" id="Layer_1" xmlns="http://www.w3.org/2000/svg" xmlns:xlink="http://www.w3.org/1999/xlink" x="0px" y="0px"
	 viewBox="0 0 269 56" style="enable-background:new 0 0 269 56;" xml:space="preserve">
<style type="text/css">
	.st0{fill:#EF305E;}
	.st1{fill:#F4F4F4;}
	.st2{fill:url(#SVGID_1_);}
	.st3{font-family:'Cinzel-Bold';}
	.st4{font-size:39px;}
</style>
<path class="st0" d="M61.1,2.8l15.2,47.4c0.8,2.6-1.1,5.2-3.8,5.2H61.3c-1.7,0-3.3-1.1-3.8-2.8l-15-47.4C41.7,2.6,43.6,0,46.3,0h11
	C59,0,60.6,1.1,61.1,2.8z"/>
<g>
	<path class="st1" d="M46.5,37.8L35.8,3.4C35.2,1.4,33.3,0,31.1,0c-2.6,0-4.8,2.1-4.9,4.7l-1.3,25.7c0,0.9,0.1,1.8,0.3,2.7l5.8,19.5
		c0.5,1.7,2.1,2.9,3.8,2.9h5.4c1.7,0,3.3-1.1,3.8-2.8l2.4-7.5C47.3,42.7,47.3,40.2,46.5,37.8z"/>
	
		<linearGradient id="SVGID_1_" gradientUnits="userSpaceOnUse" x1="28.4628" y1="29.5991" x2="48.4628" y2="23.5991" gradientTransform="matrix(1 0 0 -1 0 55.8898)">
		<stop  offset="0" style="stop-color:#000000;stop-opacity:0.2"/>
		<stop  offset="0.9115" style="stop-color:#FFFFFF;stop-opacity:0"/>
	</linearGradient>
	<path class="st2" d="M46.5,37.8L35.8,3.4C35.2,1.4,33.3,0,31.1,0c-2.6,0-4.8,2.1-4.9,4.7l-1.3,25.7c0,0.9,0.1,1.8,0.3,2.7l5.8,19.5
		c0.5,1.7,2.1,2.9,3.8,2.9h5.4c1.7,0,3.3-1.1,3.8-2.8l2.4-7.5C47.3,42.7,47.3,40.2,46.5,37.8z"/>
</g>
<path class="st0" d="M20.3,0h11C34,0,36,2.6,35.2,5.2L20.3,52.9c-0.5,1.7-2.1,2.8-3.8,2.8h-11c-2.7,0-4.6-2.6-3.8-5.2L16.5,2.8
	C17,1.1,18.6,0,20.3,0z"/>
<text transform="matrix(1 0 0 1 76.8662 37.3208)" class="st3 st4">Memoria</text>
</svg>
